<?xml version="1.0" standalone="no"?>
<!DOCTYPE svg PUBLIC "-//W3C//DTD SVG 1.1//EN" "http://www.w3.org/Graphics/SVG/1.1/DTD/svg11.dtd" >
<svg>
<metadata>
Created by FontForge 20120731 at Thu Mar 17 19:22:07 2016
 By ,,,
Copyright (c) Dino dos Santos_DSType, 2003. All rights reserved.
</metadata>
<defs>
<font id="Fragma-Medium" horiz-adv-x="470" >
  <font-face 
    font-family="Fragma"
    font-weight="500"
    font-stretch="normal"
    units-per-em="1000"
    panose-1="0 0 0 0 0 0 0 0 0 0"
    ascent="800"
    descent="-200"
    x-height="480"
    cap-height="630"
    bbox="-45 -190 745 836"
    underline-thickness="50"
    underline-position="-75"
    unicode-range="U+0020-FB02"
  />
<missing-glyph horiz-adv-x="200" 
 />
    <glyph glyph-name=".notdef" horiz-adv-x="200" 
 />
    <glyph glyph-name=".null" horiz-adv-x="0" 
 />
    <glyph glyph-name="nonmarkingreturn" horiz-adv-x="200" 
 />
    <glyph glyph-name="space" unicode=" " horiz-adv-x="200" 
 />
    <glyph glyph-name="F" unicode="F" horiz-adv-x="455" 
d="M422 630v-80h-260v-190h240v-80h-240v-280h-110v630h370z" />
    <glyph glyph-name="G" unicode="G" 
d="M312 260v-180h-128q-11 0 -19 7.5t-8 18.5v419q0 10 7.5 17.5t18.5 7.5h229v80h-265q-42 0 -71 -29t-29 -71v-430q0 -42 29 -71t71 -29h275v340h-180v-80h70z" />
    <glyph glyph-name="I" unicode="I" horiz-adv-x="230" 
d="M162 630h-110v-630h110v630z" />
    <glyph glyph-name="J" unicode="J" horiz-adv-x="285" 
d="M205 630h-110v-525q0 -11 -7.5 -18t-17.5 -7h-70v-80h105q42 0 71 29t29 71v530z" />
    <glyph glyph-name="H" unicode="H" horiz-adv-x="480" 
d="M432 630v-630h-110v280h-160v-280h-110v630h110v-270h160v270h110z" />
    <glyph glyph-name="B" unicode="B" horiz-adv-x="475" 
d="M52 0h280q42 0 71 29t29 71v150q0 23 -12.5 41t-32.5 29q18 12 29 29.5t11 40.5v140q0 42 -29 71t-71 29h-275v-630zM162 365v185h133q11 0 18 -7.5t7 -17.5v-134q0 -11 -7.5 -18.5t-18.5 -7.5h-132zM162 80v200h135q11 0 18 -7.5t7 -17.5v-149q0 -11 -7.5 -18.5
t-18.5 -7.5h-134z" />
    <glyph glyph-name="P" unicode="P" horiz-adv-x="465" 
d="M52 630h280q42 0 71 -29t29 -71v-180q0 -42 -29 -71t-71 -29h-170v-250h-110v630zM322 525q0 11 -7 18t-18 7h-135v-220h134q26 0 26 26v169z" />
    <glyph glyph-name="R" unicode="R" horiz-adv-x="495" 
d="M52 630h280q42 0 71 -29t29 -71v-173q0 -34 -24 -58t-58 -24h-25q32 -69 64.5 -137.5t65.5 -137.5h-123q-29 69 -58.5 137.5t-59.5 137.5h-52v-275h-110v630zM322 525q0 11 -7 18t-18 7h-135v-195h134q26 0 26 26v144z" />
    <glyph glyph-name="K" unicode="K" horiz-adv-x="540" 
d="M162 200v-200h-110v630h110v-278q51 69 100 138.5t100 139.5h120q-50 -69 -99 -137.5t-99 -137.5q53 -89 104.5 -177.5t103.5 -177.5h-125q-39 66 -77.5 132t-77.5 133q-23 -32 -50 -65z" />
    <glyph glyph-name="N" unicode="N" horiz-adv-x="490" 
d="M442 630v-630h-105l-177 405v-405h-108v630h110q44 -105 86.5 -208t86.5 -207v415h107z" />
    <glyph glyph-name="M" unicode="M" horiz-adv-x="600" 
d="M335 193q28 63 55 123.5t55 123.5v-440h107v630h-120q-32 -78 -64.5 -154.5t-65.5 -154.5l-135 309h-115v-630h108v440q27 -63 54.5 -123.5t54.5 -123.5h66z" />
    <glyph glyph-name="L" unicode="L" horiz-adv-x="465" 
d="M162 630v-550h275v-80h-385v630h110z" />
    <glyph glyph-name="V" unicode="V" horiz-adv-x="520" 
d="M15 630h109q30 -127 60 -252.5t61 -252.5q30 127 60 252.5t61 252.5h109q-40 -159 -79 -316.5t-79 -315.5h-145q-39 158 -78.5 315.5t-78.5 316.5z" />
    <glyph glyph-name="W" unicode="W" horiz-adv-x="770" 
d="M326 630h113q24 -126 48 -250.5t48 -249.5q25 125 50 249.5t51 250.5h109q-35 -159 -69 -316.5t-69 -315.5h-145q-21 106 -42 211.5t-43 212.5q-21 -107 -42 -212.5t-43 -211.5h-145q-33 158 -66 315.5t-66 316.5h109q24 -126 48 -250.5t48 -249.5q26 125 53 249.5
t53 250.5z" />
    <glyph glyph-name="X" unicode="X" horiz-adv-x="540" 
d="M362 630h120q-37 -79 -74 -156.5t-75 -156.5q38 -80 75 -158.5t74 -158.5h-120q-27 62 -54.5 123t-55.5 123q-27 -62 -54.5 -123t-55.5 -123h-120q38 80 74.5 158.5t73.5 158.5q-37 79 -73.5 156.5t-74.5 156.5h120q28 -62 55.5 -123t54.5 -123q28 62 55.5 123t54.5 123z
" />
    <glyph glyph-name="Y" unicode="Y" horiz-adv-x="530" 
d="M307 0h-110v216q-44 104 -87 207t-88 207h110l120 -303l120 303h110q-44 -104 -87 -207t-88 -207v-216z" />
    <glyph glyph-name="Z" unicode="Z" horiz-adv-x="445" 
d="M415 630h-383v-80h266q-69 -117 -138 -231.5t-138 -231.5v-87h398v80h-281l276 462v88z" />
    <glyph glyph-name="S" unicode="S" horiz-adv-x="450" 
d="M300 107q0 -13 -7.5 -20t-19.5 -7h-233v-80h270q42 0 71 29t29 71v160q0 42 -29 71t-71 29h-148q-12 0 -19.5 7t-7.5 19v139q0 10 7 17.5t18 7.5h230v80h-260q-42 0 -71 -29t-29 -71v-129v-21q0 -42 29 -71t71 -29h145q11 0 18 -7t7 -18v-148z" />
    <glyph glyph-name="A" unicode="A" horiz-adv-x="480" 
d="M182 550q-11 0 -18 -7.5t-7 -17.5v-185h160v183q0 11 -7.5 19t-18.5 8h-109zM47 530q0 42 29 71t71 29h180q42 0 71 -29t29 -71v-530h-110v260h-160v-260h-110v530z" />
    <glyph glyph-name="T" unicode="T" horiz-adv-x="460" 
d="M170 0v550h-155v80h420v-80h-155v-550h-110z" />
    <glyph glyph-name="agrave" unicode="&#xe0;" horiz-adv-x="430" 
d="M145 178q0 11 8 19t19 8h103v-98q0 -11 -8 -19t-19 -8h-76q-11 0 -19 8t-8 19v71zM195 0q31 0 56 16.5t36 43.5l18 -60h80v380q0 42 -29 71t-71 29h-220v-80h183q11 0 19 -8t8 -19v-88h-140q-42 0 -71 -29t-29 -71v-85q0 -42 29 -71t71 -29h60zM192 680l-85 -50
q28 -26 55 -50.5t55 -50.5l55 20q-20 33 -40 65.5t-40 65.5z" />
    <glyph glyph-name="aacute" unicode="&#xe1;" horiz-adv-x="430" 
d="M145 178q0 11 8 19t19 8h103v-98q0 -11 -8 -19t-19 -8h-76q-11 0 -19 8t-8 19v71zM195 0q31 0 56 16.5t36 43.5l18 -60h80v380q0 42 -29 71t-71 29h-220v-80h183q11 0 19 -8t8 -19v-88h-140q-42 0 -71 -29t-29 -71v-85q0 -42 29 -71t71 -29h60zM208 680l85 -50
q-28 -26 -55 -50.5t-55 -50.5l-55 20q20 33 40 65.5t40 65.5z" />
    <glyph glyph-name="acircumflex" unicode="&#xe2;" horiz-adv-x="438" 
d="M145 178q0 11 8 19t19 8h103v-98q0 -11 -8 -19t-19 -8h-76q-11 0 -19 8t-8 19v71zM195 0q31 0 56 16.5t36 43.5l18 -60h80v380q0 42 -29 71t-71 29h-220v-80h183q11 0 19 -8t8 -19v-88h-140q-42 0 -71 -29t-29 -71v-85q0 -42 29 -71t71 -29h60zM393 532q-17 -5 -32.5 -10
t-32.5 -10q-26 18 -51 36.5t-51 37.5q-26 -19 -51.5 -37.5t-51.5 -36.5q-17 5 -32.5 10t-32.5 10q32 35 64 69.5t64 69.5h80q32 -35 63.5 -69.5t63.5 -69.5z" />
    <glyph glyph-name="atilde" unicode="&#xe3;" horiz-adv-x="430" 
d="M145 178q0 11 8 19t19 8h103v-98q0 -11 -8 -19t-19 -8h-76q-11 0 -19 8t-8 19v71zM195 0q31 0 56 16.5t36 43.5l18 -60h80v380q0 42 -29 71t-71 29h-220v-80h183q11 0 19 -8t8 -19v-88h-140q-42 0 -71 -29t-29 -71v-85q0 -42 29 -71t71 -29h60zM236 629q-37 19 -66 20
t-49 -8.5t-33.5 -23.5t-19.5 -24.5t-6 -11.5l12 -36l11 6t29.5 11t42.5 5t51 -12q42 -20 74 -18.5t53 11.5t31.5 21.5l10.5 11.5l-8 43l-12.5 -4.5t-31.5 -6.5t-42.5 0.5t-46.5 15.5z" />
    <glyph glyph-name="adieresis" unicode="&#xe4;" horiz-adv-x="430" 
d="M145 178q0 11 8 19t19 8h103v-98q0 -11 -8 -19t-19 -8h-76q-11 0 -19 8t-8 19v71zM195 0q31 0 56 16.5t36 43.5l18 -60h80v380q0 42 -29 71t-71 29h-220v-80h183q11 0 19 -8t8 -19v-88h-140q-42 0 -71 -29t-29 -71v-85q0 -42 29 -71t71 -29h60zM176 649h-90v-100h90v100z
M351 649h-90v-100h90v100z" />
    <glyph glyph-name="aring" unicode="&#xe5;" horiz-adv-x="430" 
d="M145 178q0 11 8 19t19 8h103v-98q0 -11 -8 -19t-19 -8h-76q-11 0 -19 8t-8 19v71zM195 0q31 0 56 16.5t36 43.5l18 -60h80v380q0 42 -29 71t-71 29h-220v-80h183q11 0 19 -8t8 -19v-88h-140q-42 0 -71 -29t-29 -71v-85q0 -42 29 -71t71 -29h60zM252 679q24 0 41 -15.5
t17 -38.5v-56q0 -23 -17 -39t-41 -16h-64q-23 0 -40.5 16t-17.5 39v56q0 23 17.5 38.5t40.5 15.5h64zM242 633h-44q-8 0 -13.5 -4.5t-5.5 -11.5v-39q0 -7 5.5 -11.5t13.5 -4.5h44q7 0 12.5 4.5t5.5 11.5v39q0 7 -5.5 11.5t-12.5 4.5z" />
    <glyph glyph-name="egrave" unicode="&#xe8;" horiz-adv-x="430" 
d="M45 100q0 -42 29 -71t71 -29h220v80h-183q-27 0 -27 27v78h140q42 0 71 29t29 71v95q0 42 -29 71t-71 29h-150q-42 0 -71 -29t-29 -71v-280zM285 292q0 -11 -8 -19t-19 -8h-103v108q0 11 8 19t19 8h76q11 0 19 -8t8 -19v-81zM145 680l-85 -50q28 -26 55 -50.5t55 -50.5
l55 20q-20 33 -40 65.5t-40 65.5z" />
    <glyph glyph-name="eacute" unicode="&#xe9;" horiz-adv-x="430" 
d="M45 100q0 -42 29 -71t71 -29h220v80h-183q-27 0 -27 27v78h140q42 0 71 29t29 71v95q0 42 -29 71t-71 29h-150q-42 0 -71 -29t-29 -71v-280zM285 292q0 -11 -8 -19t-19 -8h-103v108q0 11 8 19t19 8h76q11 0 19 -8t8 -19v-81zM231 680l85 -50q-28 -26 -55 -50.5t-55 -50.5
l-55 20q20 33 40 65.5t40 65.5z" />
    <glyph glyph-name="ecircumflex" unicode="&#xea;" horiz-adv-x="430" 
d="M45 100q0 -42 29 -71t71 -29h220v80h-183q-27 0 -27 27v78h140q42 0 71 29t29 71v95q0 42 -29 71t-71 29h-150q-42 0 -71 -29t-29 -71v-280zM285 292q0 -11 -8 -19t-19 -8h-103v108q0 11 8 19t19 8h76q11 0 19 -8t8 -19v-81zM386 540q-17 -5 -32.5 -10t-32.5 -10
q-26 18 -51 36.5t-51 37.5q-26 -19 -51.5 -37.5t-51.5 -36.5q-17 5 -32.5 10t-32.5 10q32 35 64 69.5t64 69.5h80q32 -35 63.5 -69.5t63.5 -69.5z" />
    <glyph glyph-name="edieresis" unicode="&#xeb;" horiz-adv-x="430" 
d="M45 100q0 -42 29 -71t71 -29h220v80h-183q-27 0 -27 27v78h140q42 0 71 29t29 71v95q0 42 -29 71t-71 29h-150q-42 0 -71 -29t-29 -71v-280zM285 292q0 -11 -8 -19t-19 -8h-103v108q0 11 8 19t19 8h76q11 0 19 -8t8 -19v-81zM178 649h-90v-100h90v100zM353 649h-90v-100
h90v100z" />
    <glyph glyph-name="dotlessi" unicode="&#x131;" horiz-adv-x="230" 
d="M162 480h-110v-480h110v480z" />
    <glyph glyph-name="iacute" unicode="&#xed;" horiz-adv-x="231" 
d="M162 480h-110v-480h110v480zM131 680l85 -50q-28 -26 -55 -50.5t-55 -50.5l-55 20q20 33 40 65.5t40 65.5z" />
    <glyph glyph-name="igrave" unicode="&#xec;" horiz-adv-x="240" 
d="M172 480h-110v-480h110v480zM86 680l-85 -50q28 -26 55 -50.5t55 -50.5l55 20q-20 33 -40 65.5t-40 65.5z" />
    <glyph glyph-name="icircumflex" unicode="&#xee;" horiz-adv-x="245" 
d="M169 480h-110v-480h110v480zM291 540q-17 -5 -32.5 -10t-32.5 -10q-26 18 -51 36.5t-51 37.5q-26 -19 -51.5 -37.5t-51.5 -36.5q-17 5 -32.5 10t-32.5 10q32 35 64 69.5t64 69.5h80q32 -35 63.5 -69.5t63.5 -69.5z" />
    <glyph glyph-name="idieresis" unicode="&#xef;" horiz-adv-x="250" 
d="M172 480h-110v-480h110v480zM78 649h-90v-100h90v100zM253 649h-90v-100h90v100z" />
    <glyph glyph-name="oacute" unicode="&#xf3;" horiz-adv-x="440" 
d="M180 400q-11 0 -18 -7.5t-7 -17.5v-270q0 -11 7 -18t18 -7h80q10 0 17.5 7.5t7.5 20.5v267q0 10 -7.5 17.5t-17.5 7.5h-80zM45 380q0 42 29 71t71 29h150q42 0 71 -29t29 -71v-280q0 -36 -23 -63.5t-58 -32.5q-17 -4 -45 -4h-124q-42 0 -71 29t-29 71v280zM246 680
l85 -50q-28 -26 -55 -50.5t-55 -50.5l-55 20q20 33 40 65.5t40 65.5z" />
    <glyph glyph-name="ograve" unicode="&#xf2;" horiz-adv-x="440" 
d="M180 400q-11 0 -18 -7.5t-7 -17.5v-270q0 -11 7 -18t18 -7h80q10 0 17.5 7.5t7.5 20.5v267q0 10 -7.5 17.5t-17.5 7.5h-80zM45 380q0 42 29 71t71 29h150q42 0 71 -29t29 -71v-280q0 -36 -23 -63.5t-58 -32.5q-17 -4 -45 -4h-124q-42 0 -71 29t-29 71v280zM155 680
l-85 -50q28 -26 55 -50.5t55 -50.5l55 20q-20 33 -40 65.5t-40 65.5z" />
    <glyph glyph-name="ocircumflex" unicode="&#xf4;" horiz-adv-x="440" 
d="M180 400q-11 0 -18 -7.5t-7 -17.5v-270q0 -11 7 -18t18 -7h80q10 0 17.5 7.5t7.5 20.5v267q0 10 -7.5 17.5t-17.5 7.5h-80zM45 380q0 42 29 71t71 29h150q42 0 71 -29t29 -71v-280q0 -36 -23 -63.5t-58 -32.5q-17 -4 -45 -4h-124q-42 0 -71 29t-29 71v280zM386 540
q-17 -5 -32.5 -10t-32.5 -10q-26 18 -51 36.5t-51 37.5q-26 -19 -51.5 -37.5t-51.5 -36.5q-17 5 -32.5 10t-32.5 10q32 35 64 69.5t64 69.5h80q32 -35 63.5 -69.5t63.5 -69.5z" />
    <glyph glyph-name="odieresis" unicode="&#xf6;" horiz-adv-x="440" 
d="M180 400q-11 0 -18 -7.5t-7 -17.5v-270q0 -11 7 -18t18 -7h80q10 0 17.5 7.5t7.5 20.5v267q0 10 -7.5 17.5t-17.5 7.5h-80zM45 380q0 42 29 71t71 29h150q42 0 71 -29t29 -71v-280q0 -36 -23 -63.5t-58 -32.5q-17 -4 -45 -4h-124q-42 0 -71 29t-29 71v280zM172 649h-90
v-100h90v100zM347 649h-90v-100h90v100z" />
    <glyph glyph-name="otilde" unicode="&#xf5;" horiz-adv-x="440" 
d="M180 400q-11 0 -18 -7.5t-7 -17.5v-270q0 -11 7 -18t18 -7h80q10 0 17.5 7.5t7.5 20.5v267q0 10 -7.5 17.5t-17.5 7.5h-80zM45 380q0 42 29 71t71 29h150q42 0 71 -29t29 -71v-280q0 -36 -23 -63.5t-58 -32.5q-17 -4 -45 -4h-124q-42 0 -71 29t-29 71v280zM220 629
q-37 19 -66 20t-49 -8.5t-33.5 -23.5t-19.5 -24.5t-6 -11.5l12 -36l11 6t29.5 11t42.5 5t51 -12q42 -20 74 -18.5t53 11.5t31.5 21.5l10.5 11.5l-8 43l-12.5 -4.5t-31.5 -6.5t-42.5 0.5t-46.5 15.5z" />
    <glyph glyph-name="ugrave" unicode="&#xf9;" horiz-adv-x="445" 
d="M287 105q0 -11 -7 -18t-18 -7h-80q-11 0 -18 7t-7 18v375h-110v-380q0 -42 29 -71t71 -29h60q31 0 56 16.5t36 43.5l18 -60h80v480h-110v-375zM180 680l-85 -50q28 -26 55 -50.5t55 -50.5l55 20q-20 33 -40 65.5t-40 65.5z" />
    <glyph glyph-name="uacute" unicode="&#xfa;" horiz-adv-x="445" 
d="M287 105q0 -11 -7 -18t-18 -7h-80q-11 0 -18 7t-7 18v375h-110v-380q0 -42 29 -71t71 -29h60q31 0 56 16.5t36 43.5l18 -60h80v480h-110v-375zM260 680l85 -50q-28 -26 -55 -50.5t-55 -50.5l-55 20q20 33 40 65.5t40 65.5z" />
    <glyph glyph-name="ucircumflex" unicode="&#xfb;" horiz-adv-x="445" 
d="M287 105q0 -11 -7 -18t-18 -7h-80q-11 0 -18 7t-7 18v375h-110v-380q0 -42 29 -71t71 -29h60q31 0 56 16.5t36 43.5l18 -60h80v480h-110v-375zM385 540q-17 -5 -32.5 -10t-32.5 -10q-26 18 -51 36.5t-51 37.5q-26 -19 -51.5 -37.5t-51.5 -36.5q-17 5 -32.5 10t-32.5 10
q32 35 64 69.5t64 69.5h80q32 -35 63.5 -69.5t63.5 -69.5z" />
    <glyph glyph-name="udieresis" unicode="&#xfc;" horiz-adv-x="445" 
d="M287 105q0 -11 -7 -18t-18 -7h-80q-11 0 -18 7t-7 18v375h-110v-380q0 -42 29 -71t71 -29h60q31 0 56 16.5t36 43.5l18 -60h80v480h-110v-375zM172 649h-90v-100h90v100zM347 649h-90v-100h90v100z" />
    <glyph glyph-name="Ugrave" unicode="&#xd9;" 
d="M180 80q-11 0 -18 7t-7 18v525h-110v-530q0 -42 29 -71t71 -29h180q42 0 71 29t29 71v530h-110v-523q0 -13 -7.5 -20t-18.5 -7h-109zM185 830l-85 -50q28 -26 55 -50.5t55 -50.5l55 20q-20 33 -40 65.5t-40 65.5z" />
    <glyph glyph-name="Uacute" unicode="&#xda;" 
d="M180 80q-11 0 -18 7t-7 18v525h-110v-530q0 -42 29 -71t71 -29h180q42 0 71 29t29 71v530h-110v-523q0 -13 -7.5 -20t-18.5 -7h-109zM248 830l85 -50q-28 -26 -55 -50.5t-55 -50.5l-55 20q20 33 40 65.5t40 65.5z" />
    <glyph glyph-name="Ucircumflex" unicode="&#xdb;" 
d="M180 80q-11 0 -18 7t-7 18v525h-110v-530q0 -42 29 -71t71 -29h180q42 0 71 29t29 71v530h-110v-523q0 -13 -7.5 -20t-18.5 -7h-109zM407 695q-17 -5 -32.5 -10t-32.5 -10q-26 18 -51 36.5t-51 37.5q-26 -19 -51.5 -37.5t-51.5 -36.5q-17 5 -32.5 10t-32.5 10
q32 35 64 69.5t64 69.5h80q32 -35 63.5 -69.5t63.5 -69.5z" />
    <glyph glyph-name="Udieresis" unicode="&#xdc;" 
d="M180 80q-11 0 -18 7t-7 18v525h-110v-530q0 -42 29 -71t71 -29h180q42 0 71 29t29 71v530h-110v-523q0 -13 -7.5 -20t-18.5 -7h-109zM188 799h-90v-100h90v100zM363 799h-90v-100h90v100z" />
    <glyph glyph-name="Igrave" unicode="&#xcc;" horiz-adv-x="236" 
d="M168 630h-110v-630h110v630zM86 830l-85 -50q28 -26 55 -50.5t55 -50.5l55 20q-20 33 -40 65.5t-40 65.5z" />
    <glyph glyph-name="Iacute" unicode="&#xcd;" horiz-adv-x="233" 
d="M162 630h-110v-630h110v630zM133 830l85 -50q-28 -26 -55 -50.5t-55 -50.5l-55 20q20 33 40 65.5t40 65.5z" />
    <glyph glyph-name="Icircumflex" unicode="&#xce;" horiz-adv-x="245" 
d="M171 630h-110v-630h110v630zM291 690q-17 -5 -32.5 -10t-32.5 -10q-26 18 -51 36.5t-51 37.5q-26 -19 -51.5 -37.5t-51.5 -36.5q-17 5 -32.5 10t-32.5 10q32 35 64 69.5t64 69.5h80q32 -35 63.5 -69.5t63.5 -69.5z" />
    <glyph glyph-name="Idieresis" unicode="&#xcf;" horiz-adv-x="250" 
d="M172 630h-110v-630h110v630zM78 799h-90v-100h90v100zM253 799h-90v-100h90v100z" />
    <glyph glyph-name="Egrave" unicode="&#xc8;" horiz-adv-x="455" 
d="M422 630v-80h-260v-190h240v-80h-240v-200h260v-80h-370v630h370zM211 830l-85 -50q28 -26 55 -50.5t55 -50.5l55 20q-20 33 -40 65.5t-40 65.5z" />
    <glyph glyph-name="Eacute" unicode="&#xc9;" horiz-adv-x="455" 
d="M422 630v-80h-260v-190h240v-80h-240v-200h260v-80h-370v630h370zM245 831l85 -50q-28 -26 -55 -50.5t-55 -50.5l-55 20q20 33 40 65.5t40 65.5z" />
    <glyph glyph-name="Ecircumflex" unicode="&#xca;" horiz-adv-x="455" 
d="M422 630v-80h-260v-190h240v-80h-240v-200h260v-80h-370v630h370zM409 690q-17 -5 -32.5 -10t-32.5 -10q-26 18 -51 36.5t-51 37.5q-26 -19 -51.5 -37.5t-51.5 -36.5q-17 5 -32.5 10t-32.5 10q32 35 64 69.5t64 69.5h80q32 -35 63.5 -69.5t63.5 -69.5z" />
    <glyph glyph-name="Edieresis" unicode="&#xcb;" horiz-adv-x="455" 
d="M422 630v-80h-260v-190h240v-80h-240v-200h260v-80h-370v630h370zM187 799h-90v-100h90v100zM362 799h-90v-100h90v100z" />
    <glyph glyph-name="Agrave" unicode="&#xc0;" horiz-adv-x="480" 
d="M182 550q-11 0 -18 -7.5t-7 -17.5v-185h160v183q0 11 -7.5 19t-18.5 8h-109zM47 530q0 42 29 71t71 29h180q42 0 71 -29t29 -71v-530h-110v260h-160v-260h-110v530zM185 830l-85 -50q28 -26 55 -50.5t55 -50.5l55 20q-20 33 -40 65.5t-40 65.5z" />
    <glyph glyph-name="Aacute" unicode="&#xc1;" horiz-adv-x="480" 
d="M182 550q-11 0 -18 -7.5t-7 -17.5v-185h160v183q0 11 -7.5 19t-18.5 8h-109zM47 530q0 42 29 71t71 29h180q42 0 71 -29t29 -71v-530h-110v260h-160v-260h-110v530zM254 830l85 -50q-28 -26 -55 -50.5t-55 -50.5l-55 20q20 33 40 65.5t40 65.5z" />
    <glyph glyph-name="Acircumflex" unicode="&#xc2;" horiz-adv-x="480" 
d="M182 550q-11 0 -18 -7.5t-7 -17.5v-185h160v183q0 11 -7.5 19t-18.5 8h-109zM47 530q0 42 29 71t71 29h180q42 0 71 -29t29 -71v-530h-110v260h-160v-260h-110v530zM412 690q-17 -5 -32.5 -10t-32.5 -10q-26 18 -51 36.5t-51 37.5q-26 -19 -51.5 -37.5t-51.5 -36.5
q-17 5 -32.5 10t-32.5 10q32 35 64 69.5t64 69.5h80q32 -35 63.5 -69.5t63.5 -69.5z" />
    <glyph glyph-name="Atilde" unicode="&#xc3;" horiz-adv-x="480" 
d="M182 550q-11 0 -18 -7.5t-7 -17.5v-185h160v183q0 11 -7.5 19t-18.5 8h-109zM47 530q0 42 29 71t71 29h180q42 0 71 -29t29 -71v-530h-110v260h-160v-260h-110v530zM255 774q-37 19 -66 20t-49 -8.5t-33.5 -23.5t-19.5 -24.5t-6 -11.5l12 -36l11 6t29.5 11t42.5 5t51 -12
q42 -20 74 -18.5t53 11.5t31.5 21.5l10.5 11.5l-8 43l-12.5 -4.5t-31.5 -6.5t-42.5 0.5t-46.5 15.5z" />
    <glyph glyph-name="Adieresis" unicode="&#xc4;" horiz-adv-x="480" 
d="M182 550q-11 0 -18 -7.5t-7 -17.5v-185h160v183q0 11 -7.5 19t-18.5 8h-109zM47 530q0 42 29 71t71 29h180q42 0 71 -29t29 -71v-530h-110v260h-160v-260h-110v530zM192 799h-90v-100h90v100zM367 799h-90v-100h90v100z" />
    <glyph glyph-name="Aring" unicode="&#xc5;" horiz-adv-x="480" 
d="M182 550q-11 0 -18 -7.5t-7 -17.5v-185h160v183q0 11 -7.5 19t-18.5 8h-109zM47 530q0 42 29 71t71 29h180q42 0 71 -29t29 -71v-530h-110v260h-160v-260h-110v530zM269 821q24 0 41 -15.5t17 -38.5v-56q0 -23 -17 -39t-41 -16h-64q-23 0 -40.5 16t-17.5 39v56
q0 23 17.5 38.5t40.5 15.5h64zM259 775h-44q-8 0 -13.5 -4.5t-5.5 -11.5v-39q0 -7 5.5 -11.5t13.5 -4.5h44q7 0 12.5 4.5t5.5 11.5v39q0 7 -5.5 11.5t-12.5 4.5z" />
    <glyph glyph-name="Ograve" unicode="&#xd2;" 
d="M325 630h-180q-42 0 -71 -29t-29 -71v-430q0 -42 29 -71t71 -29h180q42 0 71 29t29 71v430q0 42 -29 71t-71 29zM290 550q11 0 18 -7.5t7 -17.5v-420q0 -11 -7 -18t-18 -7h-110q-11 0 -18 7t-7 18v420q0 10 7 17.5t18 7.5h110zM175 830l-85 -50q28 -26 55 -50.5t55 -50.5
l55 20q-20 33 -40 65.5t-40 65.5z" />
    <glyph glyph-name="Oacute" unicode="&#xd3;" 
d="M325 630h-180q-42 0 -71 -29t-29 -71v-430q0 -42 29 -71t71 -29h180q42 0 71 29t29 71v430q0 42 -29 71t-71 29zM290 550q11 0 18 -7.5t7 -17.5v-420q0 -11 -7 -18t-18 -7h-110q-11 0 -18 7t-7 18v420q0 10 7 17.5t18 7.5h110zM250 830l85 -50q-28 -26 -55 -50.5
t-55 -50.5l-55 20q20 33 40 65.5t40 65.5z" />
    <glyph glyph-name="Ocircumflex" unicode="&#xd4;" 
d="M325 630h-180q-42 0 -71 -29t-29 -71v-430q0 -42 29 -71t71 -29h180q42 0 71 29t29 71v430q0 42 -29 71t-71 29zM290 550q11 0 18 -7.5t7 -17.5v-420q0 -11 -7 -18t-18 -7h-110q-11 0 -18 7t-7 18v420q0 10 7 17.5t18 7.5h110zM398 697q-17 -5 -32.5 -10t-32.5 -10
q-26 18 -51 36.5t-51 37.5q-26 -19 -51.5 -37.5t-51.5 -36.5q-17 5 -32.5 10t-32.5 10q32 35 64 69.5t64 69.5h80q32 -35 63.5 -69.5t63.5 -69.5z" />
    <glyph glyph-name="Otilde" unicode="&#xd5;" 
d="M325 630h-180q-42 0 -71 -29t-29 -71v-430q0 -42 29 -71t71 -29h180q42 0 71 29t29 71v430q0 42 -29 71t-71 29zM290 550q11 0 18 -7.5t7 -17.5v-420q0 -11 -7 -18t-18 -7h-110q-11 0 -18 7t-7 18v420q0 10 7 17.5t18 7.5h110zM239 774q-37 19 -66 20t-49 -8.5
t-33.5 -23.5t-19.5 -24.5t-6 -11.5l12 -36l11 6t29.5 11t42.5 5t51 -12q42 -20 74 -18.5t53 11.5t31.5 21.5l10.5 11.5l-8 43l-12.5 -4.5t-31.5 -6.5t-42.5 0.5t-46.5 15.5z" />
    <glyph glyph-name="Odieresis" unicode="&#xd6;" 
d="M325 630h-180q-42 0 -71 -29t-29 -71v-430q0 -42 29 -71t71 -29h180q42 0 71 29t29 71v430q0 42 -29 71t-71 29zM290 550q11 0 18 -7.5t7 -17.5v-420q0 -11 -7 -18t-18 -7h-110q-11 0 -18 7t-7 18v420q0 10 7 17.5t18 7.5h110zM192 800h-90v-100h90v100zM367 800h-90
v-100h90v100z" />
    <glyph glyph-name="Yacute" unicode="&#xdd;" horiz-adv-x="480" 
d="M278 0h-110v216q-44 104 -87 207t-88 207h110l120 -303l120 303h110q-44 -104 -87 -207t-88 -207v-216zM280 820l85 -50q-28 -26 -55 -50.5t-55 -50.5l-55 20q20 33 40 65.5t40 65.5z" />
    <glyph glyph-name="yacute" unicode="&#xfd;" horiz-adv-x="455" 
d="M262 80h-80q-11 0 -18 7t-7 18v375h-110v-380q0 -42 29 -71t71 -29h77q20 0 36.5 9t26.5 25v-99q0 -11 -7 -18t-18 -7h-170v-80h205q42 0 71 29t29 71v550h-110v-377q-1 -10 -7.5 -16.5t-17.5 -6.5zM256 680l85 -50q-28 -26 -55 -50.5t-55 -50.5l-55 20q20 33 40 65.5
t40 65.5z" />
    <glyph glyph-name="ydieresis" unicode="&#xff;" horiz-adv-x="455" 
d="M262 80h-80q-11 0 -18 7t-7 18v375h-110v-380q0 -42 29 -71t71 -29h77q20 0 36.5 9t26.5 25v-99q0 -11 -7 -18t-18 -7h-170v-80h205q42 0 71 29t29 71v550h-110v-377q-1 -10 -7.5 -16.5t-17.5 -6.5zM172 649h-90v-100h90v100zM347 649h-90v-100h90v100z" />
    <glyph glyph-name="ntilde" unicode="&#xf1;" horiz-adv-x="445" 
d="M162 375q0 11 7 18t18 7h80q11 0 18 -7t7 -18v-375h110v380q0 42 -29 71t-71 29h-60q-31 0 -56 -16.5t-36 -43.5l-18 60h-80v-480h110v375zM236 629q-37 19 -66 20t-49 -8.5t-33.5 -23.5t-19.5 -24.5t-6 -11.5l12 -36l11 6t29.5 11t42.5 5t51 -12q42 -20 74 -18.5
t53 11.5t31.5 21.5l10.5 11.5l-8 43l-12.5 -4.5t-31.5 -6.5t-42.5 0.5t-46.5 15.5z" />
    <glyph glyph-name="Ntilde" unicode="&#xd1;" horiz-adv-x="490" 
d="M442 630v-630h-105l-177 405v-405h-108v630h110q44 -105 86.5 -208t86.5 -207v415h107zM254 773q-37 19 -66 20t-49 -8.5t-33.5 -23.5t-19.5 -24.5t-6 -11.5l12 -36l11 6t29.5 11t42.5 5t51 -12q42 -20 74 -18.5t53 11.5t31.5 21.5l10.5 11.5l-8 43l-12.5 -4.5
t-31.5 -6.5t-42.5 0.5t-46.5 15.5z" />
    <glyph glyph-name="ccedilla" unicode="&#xe7;" horiz-adv-x="390" 
d="M155 375q0 10 7 17.5t18 7.5h187v80h-222q-42 0 -71 -29t-29 -71v-280q0 -42 29 -71t71 -29h222v80h-186q-26 0 -26 26v269zM260 -95v75h-85v-75h25v-95h40l10 48t10 47z" />
    <glyph glyph-name="Ccedilla" unicode="&#xc7;" horiz-adv-x="435" 
d="M155 525q0 10 7 17.5t18 7.5h225v80h-260q-42 0 -71 -29t-29 -71v-430q0 -42 29 -71t71 -29h260v80h-225q-12 0 -18.5 7t-6.5 18v420zM265 -95v75h-85v-75h25v-95h40l10 48t10 47z" />
    <glyph glyph-name="grave" unicode="`" horiz-adv-x="200" 
d="M105 680l-85 -50q28 -26 55 -50.5t55 -50.5l55 20q-20 33 -40 65.5t-40 65.5z" />
    <glyph glyph-name="acute" unicode="&#xb4;" horiz-adv-x="200" 
d="M100 680l85 -50q-28 -26 -55 -50.5t-55 -50.5l-55 20q20 33 40 65.5t40 65.5z" />
    <glyph glyph-name="colon" unicode=":" horiz-adv-x="190" 
d="M142 100h-90v-100h90v100zM142 320h-90v-100h90v100z" />
    <glyph glyph-name="dieresis" unicode="&#xa8;" horiz-adv-x="380" 
d="M142 649h-90v-100h90v100zM317 649h-90v-100h90v100z" />
    <glyph glyph-name="equal" unicode="=" horiz-adv-x="420" 
d="M402 290v80h-350v-80h350zM402 130v80h-350v-80h350z" />
    <glyph glyph-name="plus" unicode="+" horiz-adv-x="420" 
d="M187 75h80v135h135v80h-135v135h-80v-135h-135v-80h135v-135z" />
    <glyph glyph-name="quotesingle" unicode="'" horiz-adv-x="190" 
d="M142 530v100h-90v-100h30v-105h40q5 26 10 52.5t10 52.5z" />
    <glyph glyph-name="quotedbl" unicode="&#x22;" horiz-adv-x="370" 
d="M142 530v100h-90v-100h30v-105h40q5 26 10 52.5t10 52.5zM297 530v100h-90v-100h30v-105h40q5 26 10 52.5t10 52.5z" />
    <glyph glyph-name="underscore" unicode="_" horiz-adv-x="420" 
d="M402 -100v80h-350v-80h350z" />
    <glyph glyph-name="endash" unicode="&#x2013;" horiz-adv-x="420" 
d="M402 210v80h-350v-80h350z" />
    <glyph glyph-name="emdash" unicode="&#x2014;" horiz-adv-x="520" 
d="M502 210v80h-450v-80h450z" />
    <glyph glyph-name="divide" unicode="&#xf7;" horiz-adv-x="490" 
d="M450 210v80h-380v-80h380zM305 160h-90v-100h90v100zM305 440h-90v-100h90v100z" />
    <glyph glyph-name="Ydieresis" unicode="&#x178;" horiz-adv-x="500" 
d="M278 0h-110v216q-44 104 -87 207t-88 207h110l120 -303l120 303h110q-44 -104 -87 -207t-88 -207v-216zM177 799h-90v-100h90v100zM352 799h-90v-100h90v100z" />
    <glyph glyph-name="Euro" unicode="&#x20ac;" horiz-adv-x="465" 
d="M352 220v70h-160v40h160v70h-160v125q0 10 7.5 17.5t18.5 7.5h209v80h-245q-42 0 -71 -29t-29 -71v-130h-60v-70h60v-40h-60v-70h60v-120q0 -42 29 -71t71 -29h245v80h-208q-12 0 -19.5 7t-7.5 19v114h160z" />
    <glyph glyph-name="section" unicode="&#xa7;" horiz-adv-x="450" 
d="M310 365q42 0 71 -29t29 -71v-324q0 -42 -29 -71t-71 -29h-270v80h233q12 0 19.5 7t7.5 20v152q0 11 -7 18t-18 7h-145q-36 0 -63.5 23t-32.5 58q-2 11 -3 22.5t-1 22.5v284q0 42 29 71t71 29h260v-80h-230q-11 0 -18 -7.5t-7 -17.5v-139q0 -26 27 -26h148zM135 232
q0 -12 7 -19.5t20 -7.5h107q8 0 15.5 -1t15.5 -3v59q0 11 -7 18t-18 7h-109q-8 0 -15.5 1t-15.5 3v-57z" />
    <glyph glyph-name="tilde" unicode="&#x2dc;" horiz-adv-x="437" 
d="M239 629q-37 19 -66 20t-49 -8.5t-33.5 -23.5t-19.5 -24.5t-6 -11.5l12 -36l11 6t29.5 11t42.5 5t51 -12q42 -20 74 -18.5t53 11.5t31.5 21.5l10.5 11.5l-8 43l-12.5 -4.5t-31.5 -6.5t-42.5 0.5t-46.5 15.5z" />
    <glyph glyph-name="greater" unicode="&#x3e;" horiz-adv-x="350" 
d="M47 390v-93l189 -69q-48 -18 -94.5 -35.5t-94.5 -34.5v-93q70 31 140 61.5t140 61.5v80q-70 31 -140 61t-140 61z" />
    <glyph glyph-name="lessequal" unicode="&#x2264;" horiz-adv-x="420" 
d="M357 490v-93q-48 -17 -94 -34.5t-94 -34.5q48 -18 94 -35.5t94 -34.5v-93q-70 31 -140 61.5t-140 61.5v80q70 31 140 61t140 61zM397 40v80h-350v-80h350z" />
    <glyph glyph-name="degree" unicode="&#xb0;" horiz-adv-x="284" 
d="M171 622q22 0 37.5 -14t15.5 -35v-51q0 -21 -15.5 -35.5t-37.5 -14.5h-58q-21 0 -37 14.5t-16 35.5v51q0 21 16 35t37 14h58zM164 583h-44q-8 0 -13.5 -4.5t-5.5 -11.5v-39q0 -7 5.5 -11.5t13.5 -4.5h44q7 0 12.5 4.5t5.5 11.5v39q0 7 -5.5 11.5t-12.5 4.5z" />
    <glyph glyph-name="comma" unicode="," horiz-adv-x="190" 
d="M142 0v100h-90v-100h30v-105h40q5 26 10 52.5t10 52.5z" />
    <glyph glyph-name="hyphen" unicode="-" horiz-adv-x="420" 
d="M402 210v80h-350v-80h350z" />
    <glyph glyph-name="uni00A0" unicode="&#xa0;" horiz-adv-x="300" 
 />
    <glyph glyph-name="r" unicode="r" horiz-adv-x="370" 
d="M162 360q0 17 11.5 28.5t28.5 11.5h120v80h-80q-31 0 -56 -16.5t-36 -43.5l-18 60h-80v-480h110v360z" />
    <glyph glyph-name="questiondown" unicode="&#xbf;" horiz-adv-x="460" 
d="M177 305h-90v-165h163q15 0 23.5 -9t8.5 -23v-153q0 -10 -7 -17.5t-18 -7.5h-230v-80h260q42 0 71 29t29 71v170q0 42 -29 71t-71 29h-100q-2 21 -4.5 42t-5.5 43zM177 380h-90v100h90v-100z" />
    <glyph glyph-name="semicolon" unicode=";" horiz-adv-x="190" 
d="M142 0v100h-90v-100h30v-105h40q5 26 10 52.5t10 52.5zM142 320h-90v-100h90v100z" />
    <glyph glyph-name="semicolon" unicode="&#x37e;" horiz-adv-x="190" 
d="M142 0v100h-90v-100h30v-105h40q5 26 10 52.5t10 52.5zM142 320h-90v-100h90v100z" />
    <glyph glyph-name="quoteright" unicode="&#x2019;" horiz-adv-x="190" 
d="M142 530v100h-90v-100h30v-105h40q5 26 10 52.5t10 52.5z" />
    <glyph glyph-name="quotedblleft" unicode="&#x201c;" horiz-adv-x="370" 
d="M207 525v-100h90v100h-30v105h-40q-5 -26 -10 -52.5t-10 -52.5zM52 525v-100h90v100h-30v105h-40q-5 -26 -10 -52.5t-10 -52.5z" />
    <glyph glyph-name="quoteleft" unicode="&#x2018;" horiz-adv-x="190" 
d="M52 530v-100h90v100h-30v105h-40q-5 -26 -10 -52.5t-10 -52.5z" />
    <glyph glyph-name="quotesinglbase" unicode="&#x201a;" horiz-adv-x="190" 
d="M142 0v100h-90v-100h30v-105h40q5 26 10 52.5t10 52.5z" />
    <glyph glyph-name="quotedblbase" unicode="&#x201e;" horiz-adv-x="370" 
d="M142 0v100h-90v-100h30v-105h40q5 26 10 52.5t10 52.5zM297 0v100h-90v-100h30v-105h40q5 26 10 52.5t10 52.5z" />
    <glyph glyph-name="parenright" unicode=")" horiz-adv-x="275" 
d="M100 -25q0 -10 -7 -17.5t-18 -7.5h-65v-80h100q42 0 71 29t29 71v600q0 42 -29 71t-71 29h-100v-80h65q11 0 18 -7.5t7 -17.5v-590z" />
    <glyph glyph-name="period" unicode="." horiz-adv-x="190" 
d="M142 100h-90v-100h90v100z" />
    <glyph glyph-name="asciicircum" unicode="^" horiz-adv-x="425" 
d="M380 540q-17 -5 -32.5 -10t-32.5 -10q-26 18 -51 36.5t-51 37.5q-26 -19 -51.5 -37.5t-51.5 -36.5q-17 5 -32.5 10t-32.5 10q32 35 64 69.5t64 69.5h80q32 -35 63.5 -69.5t63.5 -69.5z" />
    <glyph glyph-name="less" unicode="&#x3c;" horiz-adv-x="350" 
d="M327 390v-93q-48 -17 -94 -34.5t-94 -34.5q48 -18 94 -35.5t94 -34.5v-93q-70 31 -140 61.5t-140 61.5v80q70 31 140 61t140 61z" />
    <glyph glyph-name="fi" unicode="&#xfb01;" horiz-adv-x="553" 
d="M464 480h-110v-480h110v480zM182 670q-42 0 -71 -29t-29 -71v-90h-60v-80h60v-400h110v400h90v80h-90v85q0 11 7.5 18t17.5 7h137v-35h110v115h-282z" />
    <glyph glyph-name="Oslash" unicode="&#xd8;" 
d="M325 0q42 0 71 29t29 71v430q0 42 -29 71t-71 29h-180q-42 0 -71 -29t-29 -71v-430q0 -42 29 -71t71 -29h180zM290 550q11 0 18 -7.5t7 -17.5v-33q-41 -57 -80.5 -112t-79.5 -112v257q0 10 7 17.5t18 7.5h110zM290 80h-110q-11 0 -18 7t-7 18v29q40 57 79.5 112.5
t80.5 112.5v-254q0 -11 -7 -18t-18 -7z" />
    <glyph glyph-name="oslash" unicode="&#xf8;" horiz-adv-x="440" 
d="M295 480h-150q-42 0 -71 -29t-29 -71v-280q0 -42 29 -71t71 -29h150q42 0 71 29t29 71v280q0 42 -29 71t-71 29zM260 400q10 0 17.5 -7.5t7.5 -17.5v-28q-33 -32 -65.5 -63.5t-64.5 -63.5v155q0 10 7 17.5t18 7.5h80zM260 80h-80q-11 0 -18 7t-7 18v27q32 32 64.5 63
t65.5 63v-153q0 -11 -7.5 -18t-17.5 -7z" />
    <glyph glyph-name="fraction" unicode="&#x2215;" 
d="M345 630h95l-315 -630h-95z" />
    <glyph glyph-name="greaterequal" unicode="&#x2265;" horiz-adv-x="420" 
d="M87 490v-93l189 -69q-48 -18 -94.5 -35.5t-94.5 -34.5v-93q70 31 140 61.5t140 61.5v80q-70 31 -140 61t-140 61zM47 40v80h350v-80h-350z" />
    <glyph glyph-name="dollar" unicode="$" horiz-adv-x="450" 
d="M273 80q11 0 19 7.5t8 19.5v153q0 11 -7 18t-18 7h-28v-205h26zM187 365v190h-27q-11 0 -18 -7.5t-7 -17.5v-140q0 -10 7 -17.5t18 -7.5h27zM247 635h143v-80h-143v-190h63q42 0 71 -29t29 -71v-165q0 -42 -29 -71t-71 -29h-63v-70h-60v70h-147v80h147v205h-57
q-42 0 -71 29t-29 71v150q0 42 29 71t71 29h57v65h60v-65z" />
    <glyph glyph-name="asterisk" unicode="*" horiz-adv-x="314" 
d="M68 383l39 -39q13 16 25 31t24 31q-2 -20 -4.5 -39t-5.5 -39h56q-2 20 -4.5 39t-5.5 39q13 -16 25 -31t24 -31q10 10 20 19.5t20 19.5q-16 13 -31.5 25t-31.5 24q20 -2 39 -4.5t39 -5.5v56q-20 -2 -39 -4.5t-39 -5.5q16 13 31.5 25t31.5 24l-40 40q-12 -16 -24 -31.5
t-25 -31.5q3 20 5.5 39t4.5 39h-56q3 -20 5.5 -39t4.5 -39q-12 16 -24 31.5t-25 31.5q-10 -10 -19.5 -20t-19.5 -20q16 -12 31 -24t31 -25q-20 3 -39 5.5t-39 4.5v-56q20 3 39 5.5t39 4.5q-16 -12 -31 -24t-31 -25z" />
    <glyph glyph-name="perthousand" unicode="&#x2030;" horiz-adv-x="742" 
d="M365 500h95q-78 -126 -154.5 -250t-154.5 -250h-95q78 126 154.5 250t154.5 250zM155 498h-44q-27 0 -45.5 -19t-18.5 -45v-38q0 -26 18.5 -45t45.5 -19h44q27 0 45.5 19t18.5 45v38q0 26 -18.5 45t-45.5 19zM150 449q8 0 13.5 -6t5.5 -14v-29q0 -19 -19 -19h-33
q-20 0 -20 19v29q0 8 5.5 14t14.5 6h33zM397 166h-44q-27 0 -45.5 -19t-18.5 -45v-38q0 -26 18.5 -45t45.5 -19h44q27 0 45.5 19t18.5 45v38q0 26 -18.5 45t-45.5 19zM391 117q9 0 14.5 -6t5.5 -14v-29q0 -19 -20 -19h-33q-19 0 -19 19v29q0 8 5.5 14t13.5 6h33zM622 166
h-44q-27 0 -45.5 -19t-18.5 -45v-38q0 -26 18.5 -45t45.5 -19h44q27 0 45.5 19t18.5 45v38q0 26 -18.5 45t-45.5 19zM616 117q9 0 14.5 -6t5.5 -14v-29q0 -19 -20 -19h-33q-19 0 -19 19v29q0 8 5.5 14t13.5 6h33z" />
    <glyph glyph-name="ellipsis" unicode="&#x2026;" horiz-adv-x="590" 
d="M142 100h-90v-100h90v100zM307 100h-90v-100h90v100zM472 100h-90v-100h90v100z" />
    <glyph glyph-name="guillemotleft" unicode="&#xab;" horiz-adv-x="665" 
d="M327 405v-93q-48 -21 -94 -42t-94 -42q48 -22 94 -43t94 -42v-93q-70 35 -140 69t-140 69v80q70 35 140 68.5t140 68.5zM625 405v-93l-189 -84q48 -22 94.5 -43t94.5 -42v-93q-70 35 -140 69t-140 69v80q70 35 140 68.5t140 68.5z" />
    <glyph glyph-name="guillemotright" unicode="&#xbb;" horiz-adv-x="665" 
d="M345 405v-93q48 -21 94 -42t94 -42q-48 -22 -94 -43t-94 -42v-93q70 35 140 69t140 69v80q-70 35 -140 68.5t-140 68.5zM47 405v-93l189 -84q-48 -22 -94.5 -43t-94.5 -42v-93q70 35 140 69t140 69v80q-70 35 -140 68.5t-140 68.5z" />
    <glyph glyph-name="notequal" unicode="&#x2260;" 
d="M50 0h95q17 32 33.5 64.5t33.5 65.5h190v80h-148q11 20 21 40t21 40h106v80h-64q17 32 34 65t34 65h-95q-17 -32 -34 -65t-34 -65h-191v-80h150q-11 -20 -21.5 -40t-21.5 -40h-107v-80h66q-17 -33 -34 -65.5t-34 -64.5z" />
    <glyph glyph-name="Delta" unicode="&#x394;" horiz-adv-x="659" 
d="M15 0h579q-54 159 -108.5 316.5t-108.5 316.5h-145q-54 -159 -108.5 -316.5t-108.5 -316.5zM304 504q35 -99 70.5 -197t70.5 -197h-282q35 99 70.5 197t70.5 197z" />
    <glyph glyph-name="Eth" unicode="&#xd0;" horiz-adv-x="200" 
 />
    <glyph glyph-name="eth" unicode="&#xf0;" horiz-adv-x="200" 
 />
    <glyph glyph-name="Lslash" unicode="&#x141;" horiz-adv-x="200" 
 />
    <glyph glyph-name="lslash" unicode="&#x142;" horiz-adv-x="200" 
 />
    <glyph glyph-name="nine" unicode="9" horiz-adv-x="460" 
d="M410 530q0 42 -29 71t-71 29h-180q-42 0 -71 -29t-29 -71v-165q0 -42 29 -71t71 -29h170v-160q0 -11 -7.5 -18t-18.5 -7h-229v-80h265q42 0 71 29t29 71v430zM135 523q0 11 7.5 19t19.5 8h111q11 0 19 -8t8 -19v-178h-138q-11 0 -19 7.5t-8 18.5v152z" />
    <glyph glyph-name="florin" unicode="&#x192;" horiz-adv-x="322" 
d="M92 -170q42 0 71 29t29 71v470h100v80h-100v85q0 11 7.5 18t17.5 7h75v80h-110q-42 0 -71 -29t-29 -71v-90h-60v-80h60v-465q0 -11 -7 -18t-18 -7h-57v-80h92z" />
    <glyph glyph-name="yen" unicode="&#xa5;" horiz-adv-x="530" 
d="M457 140v80h-130q3 12 6 24.5t6 25.5h118v80h-80l60 140l60 140h-110l-56 -140l-56 -140h-16l-56 140l-56 140h-110l60 -140l60 -140h-85v-80h123q3 -13 6 -25.5t6 -24.5h-135v-80h140v-140h110v140h135z" />
    <glyph glyph-name="braceright" unicode="}" horiz-adv-x="315" 
d="M133 -130q42 0 71 29t29 71v237q0 13 8 21.5t22 8.5h22v99h-22q-14 0 -22 8.5t-8 21.5v204q0 42 -29 71t-71 29h-100v-80h65q11 0 18 -7.5t7 -17.5v-208q0 -25 11.5 -46t30.5 -34q-19 -13 -30.5 -34t-11.5 -46v-217q0 -13 -8 -21.5t-22 -8.5h-60v-80h100z" />
    <glyph glyph-name="braceleft" unicode="{" horiz-adv-x="315" 
d="M182 -130q-42 0 -71 29t-29 71v237q0 13 -8 21.5t-22 8.5h-22v99h22q14 0 22 8.5t8 21.5v204q0 42 29 71t71 29h100v-80h-65q-11 0 -18 -7.5t-7 -17.5v-208q0 -25 -11.5 -46t-30.5 -34q19 -13 30.5 -34t11.5 -46v-217q0 -13 8 -21.5t22 -8.5h60v-80h-100z" />
    <glyph glyph-name="bracketright" unicode="]" horiz-adv-x="275" 
d="M100 -25q0 -10 -7 -17.5t-18 -7.5h-65v-80h100q42 0 71 29t29 71v600q0 42 -29 71t-71 29h-100v-80h65q11 0 18 -7.5t7 -17.5v-590z" />
    <glyph glyph-name="bracketleft" unicode="[" horiz-adv-x="275" 
d="M162 -25q0 -10 7 -17.5t18 -7.5h65v-80h-100q-42 0 -71 29t-29 71v600q0 42 29 71t71 29h100v-80h-65q-11 0 -18 -7.5t-7 -17.5v-590z" />
    <glyph glyph-name="question" unicode="?" horiz-adv-x="430" 
d="M180 175h-90v165h163q15 0 23.5 9t8.5 23v153q0 10 -7 17.5t-18 7.5h-230v80h260q42 0 71 -29t29 -71v-170q0 -42 -29 -71t-71 -29h-100q-2 -21 -4.5 -42t-5.5 -43zM180 100h-90v-100h90v100z" />
    <glyph glyph-name="a" unicode="a" horiz-adv-x="430" 
d="M145 178q0 11 8 19t19 8h103v-98q0 -11 -8 -19t-19 -8h-76q-11 0 -19 8t-8 19v71zM195 0q31 0 56 16.5t36 43.5l18 -60h80v380q0 42 -29 71t-71 29h-220v-80h183q11 0 19 -8t8 -19v-88h-140q-42 0 -71 -29t-29 -71v-85q0 -42 29 -71t71 -29h60z" />
    <glyph glyph-name="o" unicode="o" horiz-adv-x="440" 
d="M180 400q-11 0 -18 -7.5t-7 -17.5v-270q0 -11 7 -18t18 -7h80q10 0 17.5 7.5t7.5 20.5v267q0 10 -7.5 17.5t-17.5 7.5h-80zM45 380q0 42 29 71t71 29h150q42 0 71 -29t29 -71v-280q0 -36 -23 -63.5t-58 -32.5q-17 -4 -45 -4h-124q-42 0 -71 29t-29 71v280z" />
    <glyph glyph-name="n" unicode="n" horiz-adv-x="445" 
d="M162 375q0 11 7 18t18 7h80q11 0 18 -7t7 -18v-375h110v380q0 42 -29 71t-71 29h-60q-31 0 -56 -16.5t-36 -43.5l-18 60h-80v-480h110v375z" />
    <glyph glyph-name="paragraph" unicode="&#xb6;" horiz-adv-x="460" 
d="M290 610h-120q-42 0 -71 -29t-29 -71v-150q0 -42 29 -71t71 -29h60v-260h60v610zM390 610h-60v-610h60v610z" />
    <glyph glyph-name="m" unicode="m" horiz-adv-x="665" 
d="M391 424q12 25 36 40.5t54 15.5h61q42 0 71 -29t29 -71v-380h-110v375q0 11 -7 18t-18 7h-80q-10 0 -17 -6.5t-8 -17.5v-376h-110v375q0 11 -7 18t-18 7h-80q-10 0 -17.5 -7t-7.5 -18v-375h-110v480h80l18 -60q11 27 36 43.5t56 16.5h60q30 0 53.5 -15.5t35.5 -40.5z" />
    <glyph glyph-name="u" unicode="u" horiz-adv-x="445" 
d="M287 105q0 -11 -7 -18t-18 -7h-80q-11 0 -18 7t-7 18v375h-110v-380q0 -42 29 -71t71 -29h60q31 0 56 16.5t36 43.5l18 -60h80v480h-110v-375z" />
    <glyph glyph-name="i" unicode="i" horiz-adv-x="230" 
d="M162 480h-110v-480h110v480zM162 670h-110v-105h110v105z" />
    <glyph glyph-name="j" unicode="j" horiz-adv-x="235" 
d="M160 480h-110v-545q0 -11 -7 -18t-18 -7h-70v-80h105q42 0 71 29t29 71v550zM160 670h-110v-106h110v106z" />
    <glyph glyph-name="l" unicode="l" horiz-adv-x="230" 
d="M162 670h-110v-670h110v670z" />
    <glyph glyph-name="h" unicode="h" horiz-adv-x="445" 
d="M162 400h105q11 0 18 -7t7 -18v-375h110v380q0 42 -29 71t-71 29h-140v190h-110v-670h110v400z" />
    <glyph glyph-name="e" unicode="e" horiz-adv-x="430" 
d="M45 100q0 -42 29 -71t71 -29h220v80h-183q-27 0 -27 27v78h140q42 0 71 29t29 71v95q0 42 -29 71t-71 29h-150q-42 0 -71 -29t-29 -71v-280zM285 292q0 -11 -8 -19t-19 -8h-103v108q0 11 8 19t19 8h76q11 0 19 -8t8 -19v-81z" />
    <glyph glyph-name="c" unicode="c" horiz-adv-x="390" 
d="M155 375q0 10 7 17.5t18 7.5h187v80h-222q-42 0 -71 -29t-29 -71v-280q0 -42 29 -71t71 -29h222v80h-186q-11 0 -18.5 7.5t-7.5 18.5v269z" />
    <glyph glyph-name="d" unicode="d" horiz-adv-x="445" 
d="M45 100q0 -42 29 -71t71 -29h60q31 0 56 16.5t36 43.5l18 -60h80v670h-110v-190h-140q-42 0 -71 -29t-29 -71v-280zM285 105q0 -11 -7 -18t-18 -7h-80q-11 0 -18 7.5t-7 17.5v270q0 10 7 17.5t18 7.5h105v-295z" />
    <glyph glyph-name="b" unicode="b" horiz-adv-x="445" 
d="M402 100q0 -42 -29 -71t-71 -29h-60q-31 0 -56 16.5t-36 43.5l-18 -60h-80v670h110v-190h140q42 0 71 -29t29 -71v-280zM162 105q0 -11 7 -18t18 -7h80q11 0 18 7.5t7 17.5v270q0 10 -7 17.5t-18 7.5h-105v-295z" />
    <glyph glyph-name="s" unicode="s" horiz-adv-x="410" 
d="M260 107q0 -13 -7.5 -20t-19.5 -7h-193v-80h230q42 0 71 29t29 71v85q0 42 -29 71t-71 29h-108q-27 0 -27 26v64q0 10 7 17.5t18 7.5h190v80h-220q-42 0 -71 -29t-29 -71v-42t0.5 -26t1 -14.5t0.5 -8.5q5 -36 32.5 -60t65.5 -24h105q11 0 18 -7t7 -18v-73z" />
    <glyph glyph-name="f" unicode="f" horiz-adv-x="322" 
d="M182 670q-42 0 -71 -29t-29 -71v-90h-60v-80h60v-400h110v400h100v80h-100v85q0 11 7.5 18t17.5 7h75v80h-110z" />
    <glyph glyph-name="t" unicode="t" horiz-adv-x="335" 
d="M292 480v-80h-105v-295q0 -11 7 -18t18 -7h80v-80h-96q-22 0 -38 4q-35 5 -58 32.5t-23 63.5v300h-55v80h55v140h110v-140h105z" />
    <glyph glyph-name="k" unicode="k" horiz-adv-x="465" 
d="M427 0q-28 51 -55 102t-55 103h13q38 0 57.5 25t19.5 55v195h-110v-170q0 -11 -7 -18t-18 -7h-110v385h-110v-670h110v205h48q26 -52 52.5 -103t52.5 -102h112z" />
    <glyph glyph-name="y" unicode="y" horiz-adv-x="445" 
d="M262 80h-80q-11 0 -18 7t-7 18v375h-110v-380q0 -42 29 -71t71 -29h77q20 0 36.5 9t26.5 25v-99q0 -11 -7 -18t-18 -7h-170v-80h205q42 0 71 29t29 71v550h-110v-377q-1 -10 -7.5 -16.5t-17.5 -6.5z" />
    <glyph glyph-name="g" unicode="g" horiz-adv-x="445" 
d="M285 80h-105q-11 0 -18 7t-7 18v270q0 10 7 17.5t18 7.5h80q11 0 18 -7.5t7 -17.5v-295zM295 -170q42 0 71 29t29 71v550h-80l-18 -60q-11 27 -36 43.5t-56 16.5h-60q-42 0 -71 -29t-29 -71v-280q0 -42 29 -71t71 -29h140v-65q0 -11 -7 -18t-18 -7h-170v-80h205z" />
    <glyph glyph-name="p" unicode="p" horiz-adv-x="445" 
d="M402 380q0 42 -29 71t-71 29h-60q-31 0 -56 -16.5t-36 -43.5l-18 60h-80v-670h110v190h140q42 0 71 29t29 71v280zM162 375q0 10 7 17.5t18 7.5h80q11 0 18 -7.5t7 -17.5v-270q0 -11 -7 -18t-18 -7h-105v295z" />
    <glyph glyph-name="q" unicode="q" horiz-adv-x="445" 
d="M45 380q0 42 29 71t71 29h60q31 0 56 -16.5t36 -43.5l18 60h80v-670h-110v190h-140q-42 0 -71 29t-29 71v280zM285 375q0 10 -7 17.5t-18 7.5h-80q-11 0 -18 -7.5t-7 -17.5v-270q0 -11 7 -18t18 -7h105v295z" />
    <glyph glyph-name="v" unicode="v" 
d="M12 480h109l96 -375l96 375h109q-33 -121 -66 -241t-66 -241h-145q-34 121 -66.5 241t-66.5 241z" />
    <glyph glyph-name="w" unicode="w" horiz-adv-x="756" 
d="M12 480h109q22 -94 43 -187.5t43 -187.5q23 94 45.5 187.5t45.5 187.5h110q23 -94 45.5 -187.5t45.5 -187.5q22 94 43 187.5t43 187.5h109q-31 -121 -61.5 -241t-61.5 -241h-140q-20 78 -39 155t-39 155q-20 -78 -39 -155t-39 -155h-140q-31 121 -61.5 241t-61.5 241z
" />
    <glyph glyph-name="x" unicode="x" horiz-adv-x="500" 
d="M327 480h115q-34 -58 -67.5 -115.5t-67.5 -114.5q34 -63 67.5 -125t67.5 -125h-115q-23 45 -47 90l-48 90q-23 -45 -47 -90l-48 -90h-115q34 63 67 125t67 125q-34 57 -67 114.5t-67 115.5h115q24 -42 48 -82.5t47 -82.5q24 42 48 82.5t47 82.5z" />
    <glyph glyph-name="z" unicode="z" horiz-adv-x="425" 
d="M377 480h-350v-80h233q-60 -79 -119 -156.5t-119 -156.5v-87h360v80h-243q60 78 119 156t119 156v88z" />
    <glyph glyph-name="C" unicode="C" horiz-adv-x="435" 
d="M155 105q0 -10 7 -17.5t18 -7.5h225v-80h-260q-42 0 -71 29t-29 71v430q0 42 29 71t71 29h260v-80h-225q-11 0 -18 -7.5t-7 -17.5v-420z" />
    <glyph glyph-name="O" unicode="O" 
d="M325 630h-180q-42 0 -71 -29t-29 -71v-430q0 -42 29 -71t71 -29h180q42 0 71 29t29 71v430q0 42 -29 71t-71 29zM290 550q11 0 18 -7.5t7 -17.5v-420q0 -11 -7 -18t-18 -7h-110q-11 0 -18 7t-7 18v420q0 10 7 17.5t18 7.5h110z" />
    <glyph glyph-name="Q" unicode="Q" 
d="M290 550q11 0 18 -7.5t7 -17.5v-420q0 -11 -7 -18t-18 -7h-110q-11 0 -18 7t-7 18v420q0 10 7 17.5t18 7.5h110zM325 630h-180q-42 0 -71 -29t-29 -71v-430q0 -42 29 -71t71 -29h60v-48q0 -16 -10 -26t-26 -10h-49v-66h60q42 0 71 29t29 71v50h45q42 0 71 29t29 71v430
q0 42 -29 71t-71 29z" />
    <glyph glyph-name="D" unicode="D" horiz-adv-x="475" 
d="M52 630h280q42 0 71 -29t29 -71v-430q0 -42 -29 -71t-71 -29h-280v630zM322 525q0 10 -7 17.5t-18 7.5h-135v-470h134q26 0 26 26v419z" />
    <glyph glyph-name="U" unicode="U" 
d="M180 80q-11 0 -18 7t-7 18v525h-110v-530q0 -42 29 -71t71 -29h180q42 0 71 29t29 71v530h-110v-523q0 -13 -7.5 -20t-18.5 -7h-109z" />
    <glyph glyph-name="E" unicode="E" horiz-adv-x="455" 
d="M422 630v-80h-260v-190h240v-80h-240v-200h260v-80h-370v630h370z" />
    <glyph glyph-name="trademark" unicode="&#x2122;" horiz-adv-x="596" 
d="M145 400v182h-85v30h200v-30h-85v-182h-30zM435 400q18 38 35.5 76t35.5 76v-152h30v212h-35q-21 -45 -41.5 -90t-41.5 -90q-20 45 -41 90t-41 90h-35v-212h30v152q18 -38 35.5 -76t35.5 -76h33z" />
    <glyph glyph-name="registered" unicode="&#xae;" horiz-adv-x="670" 
d="M510 610h-350q-42 0 -71 -29t-29 -71v-410q0 -42 29 -71t71 -29h350q42 0 71 29t29 71v410q0 42 -29 71t-71 29zM510 550q17 0 28.5 -11.5t11.5 -28.5v-410q0 -17 -11.5 -28.5t-28.5 -11.5h-350q-17 0 -28.5 11.5t-11.5 28.5v410q0 17 11.5 28.5t28.5 11.5h350zM180 510
h210q42 0 71 -29t29 -71v-30q0 -42 -29 -71t-71 -29h-36q37 -45 73 -90t73 -90h-75q-36 45 -72.5 90t-72.5 90h-40v-180h-60v410zM430 410q0 17 -11.5 28.5t-28.5 11.5h-150v-110h140q23 0 36.5 13.5t13.5 36.5v20z" />
    <glyph glyph-name="copyright" unicode="&#xa9;" horiz-adv-x="670" 
d="M510 610h-350q-42 0 -71 -29t-29 -71v-410q0 -42 29 -71t71 -29h350q42 0 71 29t29 71v410q0 42 -29 71t-71 29zM510 550q17 0 28.5 -11.5t11.5 -28.5v-410q0 -17 -11.5 -28.5t-28.5 -11.5h-350q-17 0 -28.5 11.5t-11.5 28.5v410q0 17 11.5 28.5t28.5 11.5h350zM240 410
q0 17 11.5 28.5t28.5 11.5h200v60h-200q-42 0 -71 -29t-29 -71v-210q0 -42 29 -71t71 -29h200v60h-190q-23 0 -36.5 13.5t-13.5 36.5v200z" />
    <glyph glyph-name="germandbls" unicode="&#xdf;" 
d="M162 360h127q14 0 22.5 8.5t8.5 22.5v134q0 10 -7 17.5t-18 7.5h-108q-11 0 -18 -7.5t-7 -17.5v-165zM52 530q0 42 29 71t71 29h175q42 0 71 -29t29 -71v-145q0 -23 -11 -40.5t-29 -29.5q20 -11 32.5 -29t12.5 -41v-145q0 -42 -29 -71t-71 -29h-102v80h61q31 0 31 31v139
q0 10 -7 17.5t-18 7.5h-135v-445h-110v700z" />
    <glyph glyph-name="bullet" unicode="&#x2022;" horiz-adv-x="240" 
d="M140 290q17 0 28.5 -11.5t11.5 -28.5v-40q0 -17 -11.5 -28.5t-28.5 -11.5h-40q-17 0 -28.5 11.5t-11.5 28.5v40q0 17 11.5 28.5t28.5 11.5h40z" />
    <glyph glyph-name="sterling" unicode="&#xa3;" horiz-adv-x="455" 
d="M207 550q-11 0 -18 -7t-7 -18v-165h130v-80h-130v-200h230v-80h-400v80h60v450q0 42 29 71t71 29h240v-80h-205z" />
    <glyph glyph-name="approxequal" unicode="&#x2248;" horiz-adv-x="474" 
d="M263 366q-41 19 -75.5 20t-60.5 -8.5t-45 -23.5t-27.5 -24.5t-9.5 -11.5l13 -36l16 6t41.5 11t56.5 5t60 -12q47 -20 85.5 -18.5t67 11.5t44 21.5l15.5 11.5l-8 43l-17.5 -4.5t-44 -6.5t-56.5 0.5t-55 15.5zM263 216q-41 19 -75.5 20t-60.5 -8.5t-45 -23.5t-27.5 -24.5
t-9.5 -11.5l13 -36l16 6t41.5 11t56.5 5t60 -12q47 -20 85.5 -18.5t67 11.5t44 21.5l15.5 11.5l-8 43l-17.5 -4.5t-44 -6.5t-56.5 0.5t-55 15.5z" />
    <glyph glyph-name="circumflex" unicode="&#x2c6;" horiz-adv-x="425" 
d="M380 540q-17 -5 -32.5 -10t-32.5 -10q-26 18 -51 36.5t-51 37.5q-26 -19 -51.5 -37.5t-51.5 -36.5q-17 5 -32.5 10t-32.5 10q32 35 64 69.5t64 69.5h80q32 -35 63.5 -69.5t63.5 -69.5z" />
    <glyph glyph-name="ring" unicode="&#x2da;" horiz-adv-x="284" 
d="M174 679q24 0 41 -15.5t17 -38.5v-56q0 -23 -17 -39t-41 -16h-64q-23 0 -40.5 16t-17.5 39v56q0 23 17.5 38.5t40.5 15.5h64zM164 633h-44q-8 0 -13.5 -4.5t-5.5 -11.5v-39q0 -7 5.5 -11.5t13.5 -4.5h44q7 0 12.5 4.5t5.5 11.5v39q0 7 -5.5 11.5t-12.5 4.5z" />
    <glyph glyph-name="slash" unicode="/" 
d="M345 630h95l-315 -630h-95z" />
    <glyph glyph-name="plusminus" unicode="&#xb1;" horiz-adv-x="490" 
d="M205 155h80v135h135v80h-135v135h-80v-135h-135v-80h135v-135zM420 40v80h-350v-80h350z" />
    <glyph glyph-name="caron" unicode="&#x2c7;" horiz-adv-x="425" 
d="M380 660q-17 5 -32.5 10t-32.5 10q-26 -19 -51 -37.5t-51 -36.5q-26 18 -51.5 36.5t-51.5 37.5q-17 -5 -32.5 -10t-32.5 -10q32 -35 64 -69.5t64 -69.5h80q32 35 63.5 69.5t63.5 69.5z" />
    <glyph glyph-name="zcaron" unicode="&#x17e;" horiz-adv-x="385" 
d="M373 480h-350v-80h233q-60 -79 -119 -156.5t-119 -156.5v-87h360v80h-243q60 78 119 156t119 156v88zM378 660q-17 5 -32.5 10t-32.5 10q-26 -19 -51 -37.5t-51 -36.5q-26 18 -51.5 36.5t-51.5 37.5q-17 -5 -32.5 -10t-32.5 -10q32 -35 64 -69.5t64 -69.5h80
q32 35 63.5 69.5t63.5 69.5z" />
    <glyph glyph-name="Zcaron" unicode="&#x17d;" horiz-adv-x="440" 
d="M415 630h-383v-80h266q-69 -117 -138 -231.5t-138 -231.5v-87h398v80h-281l276 462v88zM400 810q-17 5 -32.5 10t-32.5 10q-26 -19 -51 -37.5t-51 -36.5q-26 18 -51.5 36.5t-51.5 37.5q-17 -5 -32.5 -10t-32.5 -10q32 -35 64 -69.5t64 -69.5h80q32 35 63.5 69.5
t63.5 69.5z" />
    <glyph glyph-name="Scaron" unicode="&#x160;" horiz-adv-x="430" 
d="M300 107q0 -13 -7.5 -20t-19.5 -7h-233v-80h270q42 0 71 29t29 71v160q0 42 -29 71t-71 29h-148q-12 0 -19.5 7t-7.5 19v139q0 10 7 17.5t18 7.5h230v80h-260q-42 0 -71 -29t-29 -71v-129v-21q0 -42 29 -71t71 -29h145q11 0 18 -7t7 -18v-148zM380 810q-17 5 -32.5 10
t-32.5 10q-26 -19 -51 -37.5t-51 -36.5q-26 18 -51.5 36.5t-51.5 37.5q-17 -5 -32.5 -10t-32.5 -10q32 -35 64 -69.5t64 -69.5h80q32 35 63.5 69.5t63.5 69.5z" />
    <glyph glyph-name="scaron" unicode="&#x161;" horiz-adv-x="390" 
d="M280 107q0 -13 -7.5 -20t-19.5 -7h-193v-80h230q42 0 71 29t29 71v85q0 42 -29 71t-71 29h-108q-27 0 -27 26v64q0 10 7 17.5t18 7.5h190v80h-220q-42 0 -71 -29t-29 -71v-42t0.5 -26t1 -14.5t0.5 -8.5q5 -36 32.5 -60t65.5 -24h105q11 0 18 -7t7 -18v-73zM377 660
q-17 5 -32.5 10t-32.5 10q-26 -19 -51 -37.5t-51 -36.5q-26 18 -51.5 36.5t-51.5 37.5q-17 -5 -32.5 -10t-32.5 -10q32 -35 64 -69.5t64 -69.5h80q32 35 63.5 69.5t63.5 69.5z" />
    <glyph glyph-name="percent" unicode="%" horiz-adv-x="502" 
d="M365 500h95q-78 -126 -154.5 -250t-154.5 -250h-95q78 126 154.5 250t154.5 250zM155 498h-44q-27 0 -45.5 -19t-18.5 -45v-38q0 -26 18.5 -45t45.5 -19h44q27 0 45.5 19t18.5 45v38q0 26 -18.5 45t-45.5 19zM150 449q8 0 13.5 -6t5.5 -14v-29q0 -19 -19 -19h-33
q-20 0 -20 19v29q0 8 5.5 14t14.5 6h33zM397 166h-44q-27 0 -45.5 -19t-18.5 -45v-38q0 -26 18.5 -45t45.5 -19h44q27 0 45.5 19t18.5 45v38q0 26 -18.5 45t-45.5 19zM391 117q9 0 14.5 -6t5.5 -14v-29q0 -19 -20 -19h-33q-19 0 -19 19v29q0 8 5.5 14t13.5 6h33z" />
    <glyph glyph-name="bar" unicode="|" horiz-adv-x="200" 
d="M155 700h-85v-870h85v870z" />
    <glyph glyph-name="numbersign" unicode="#" 
d="M132 50h80v80h80v-80h80v80h80v80h-80v80h80v80h-80v80h-80v-80h-80v80h-80v-80h-80v-80h80v-80h-80v-80h80v-80zM212 290h80v-80h-80v80z" />
    <glyph glyph-name="one" unicode="1" horiz-adv-x="265" 
d="M195 630h-195v-80h85v-550h110v630z" />
    <glyph glyph-name="three" unicode="3" horiz-adv-x="450" 
d="M30 80v-80h275q42 0 71 29t29 71v150q0 23 -12.5 41t-32.5 29q18 12 29 29.5t11 40.5v140q0 42 -29 71t-71 29h-270v-80h237q11 0 18 -7.5t7 -17.5v-134q0 -11 -7.5 -18.5t-18.5 -7.5h-196v-85h200q11 0 18 -7.5t7 -17.5v-149q0 -11 -7.5 -18.5t-18.5 -7.5h-239z" />
    <glyph glyph-name="two" unicode="2" horiz-adv-x="450" 
d="M130 360q-42 0 -71 -29t-29 -71v-260h370v80h-260v175q0 11 7 18t18 7h145q42 0 71 29t29 71v150q0 42 -29 71t-71 29h-260v-80h229q11 0 18.5 -7.5t7.5 -17.5v-139q0 -11 -8 -18.5t-19 -7.5h-148z" />
    <glyph glyph-name="five" unicode="5" horiz-adv-x="450" 
d="M300 258q0 11 -8 19t-19 8h-233v345h355v-80h-245v-185h155q42 0 71 -29t29 -71v-165q0 -42 -29 -71t-71 -29h-275v80h244q11 0 18.5 7t7.5 18v153z" />
    <glyph glyph-name="seven" unicode="7" horiz-adv-x="425" 
d="M392 630h-377v-80h266q-61 -138 -122 -275t-122 -275h115q60 137 120 271t120 271v88z" />
    <glyph glyph-name="eight" unicode="8" 
d="M375 320q20 -11 32.5 -29t12.5 -41v-150q0 -42 -29 -71t-71 -29h-180q-42 0 -71 29t-29 71v150q0 23 12.5 41t32.5 29q-18 12 -29 29.5t-11 40.5v140q0 42 29 71t71 29h170q42 0 71 -29t29 -71v-140q0 -23 -11 -40.5t-29 -29.5zM152 391q0 -11 7.5 -18.5t18.5 -7.5h103
q11 0 18.5 7.5t7.5 18.5v134q0 10 -7 17.5t-18 7.5h-105q-11 0 -18 -7.5t-7 -17.5v-134zM150 106q0 -11 7.5 -18.5t18.5 -7.5h108q11 0 18.5 7.5t7.5 18.5v149q0 10 -7 17.5t-18 7.5h-110q-11 0 -18 -7.5t-7 -17.5v-149z" />
    <glyph glyph-name="six" unicode="6" horiz-adv-x="460" 
d="M45 100q0 -42 29 -71t71 -29h180q42 0 71 29t29 71v165q0 42 -29 71t-71 29h-170v160q0 10 7 17.5t18 7.5h230v80h-265q-42 0 -71 -29t-29 -71v-430zM320 106q0 -11 -8 -18.5t-19 -7.5h-111q-12 0 -19.5 7.5t-7.5 18.5v179h138q11 0 19 -8t8 -19v-152z" />
    <glyph glyph-name="four" unicode="4" horiz-adv-x="465" 
d="M30 630h110v-270q0 -11 7.5 -18t17.5 -7h135v295h110v-630h-110v255h-170q-42 0 -71 29t-29 71v275z" />
    <glyph glyph-name="_256" unicode="&#xe001;" horiz-adv-x="460" 
 />
    <glyph glyph-name="exclam" unicode="!" horiz-adv-x="230" 
d="M162 630h-110q3 -115 5.5 -228t4.5 -227h90q3 114 5.5 227t4.5 228zM152 100h-90v-100h90v100z" />
    <glyph glyph-name="multiply" unicode="&#xd7;" horiz-adv-x="438" 
d="M60 133l42 -42l117 117l117 -117l42 42l-117 117l117 117l-42 42l-117 -117l-117 117l-42 -42l117 -117z" />
    <glyph glyph-name="ordfeminine" unicode="&#xaa;" horiz-adv-x="330" 
d="M307 570h-160q-42 0 -71 -29t-29 -71v-70q0 -42 29 -71t71 -29h19q23 0 42 12.5t27 32.5q4 -11 7 -22.5t7 -22.5h58v270zM155 378q-13 0 -21.5 9t-8.5 21v53q0 13 8.5 21.5t21.5 8.5h75v-83q0 -12 -9 -21t-21 -9h-45z" />
    <glyph glyph-name="ordmasculine" unicode="&#xba;" horiz-adv-x="330" 
d="M207 570h-60q-42 0 -71 -29t-29 -71v-70q0 -42 29 -71t71 -29h60q42 0 71 29t29 71v70q0 42 -29 71t-71 29zM200 491q12 0 21 -8.5t9 -21.5v-53q0 -12 -9 -21t-21 -9h-45q-13 0 -21.5 9t-8.5 21v53q0 13 8.5 21.5t21.5 8.5h45z" />
    <glyph glyph-name="ampersand" unicode="&#x26;" horiz-adv-x="530" 
d="M145 175q0 11 7 18t18 7h130v-95q0 -11 -7.5 -18t-17.5 -7h-104q-11 0 -18.5 7.5t-7.5 18.5v69zM520 0v80h-84q-11 0 -19 7.5t-7 19.5v93h110v80h-110v70h-110v-70h-126q-11 0 -19 7.5t-8 18.5v69q0 10 7.5 17.5t18.5 7.5h237v80h-273q-42 0 -71 -29t-29 -71v-70
q0 -23 11 -40.5t29 -29.5q-20 -11 -32.5 -29t-12.5 -41v-70q0 -42 29 -71t71 -29h148q46 0 69 40q23 -40 69 -40h102z" />
    <glyph glyph-name="at" unicode="@" horiz-adv-x="670" 
d="M380 175q17 0 28.5 11.5t11.5 28.5v70h-130q-17 0 -28.5 -11.5t-11.5 -28.5v-30q0 -17 11.5 -28.5t28.5 -11.5h90zM220 425v60h160q42 0 71 -29t29 -71v-210h30q17 0 28.5 11.5t11.5 28.5v295q0 17 -11.5 28.5t-28.5 11.5h-350q-17 0 -28.5 -11.5t-11.5 -28.5v-410
q0 -17 11.5 -28.5t28.5 -11.5h100v-60h-100q-42 0 -71 29t-29 71v410q0 42 29 71t71 29h350q42 0 71 -29t29 -71v-295q0 -42 -29 -71t-71 -29h-60l-18 60q-11 -27 -36 -43.5t-56 -16.5h-50q-42 0 -71 29t-29 71v30q0 42 29 71t71 29h130v35q0 20 -12.5 32.5t-32.5 12.5h-155
z" />
    <glyph glyph-name="exclamdown" unicode="&#xa1;" horiz-adv-x="230" 
d="M162 -150h-110q3 114 5.5 227t4.5 228h90q3 -115 5.5 -228t4.5 -227zM152 380h-90v100h90v-100z" />
    <glyph glyph-name="quotedblright" unicode="&#x201d;" horiz-adv-x="370" 
d="M142 530v100h-90v-100h30v-105h40q5 26 10 52.5t10 52.5zM297 530v100h-90v-100h30v-105h40q5 26 10 52.5t10 52.5z" />
    <glyph glyph-name="backslash" unicode="\" 
d="M125 630h-95l315 -630h95z" />
    <glyph glyph-name="parenleft" unicode="(" horiz-adv-x="275" 
d="M162 -25q0 -10 7 -17.5t18 -7.5h65v-80h-100q-42 0 -71 29t-29 71v600q0 42 29 71t71 29h100v-80h-65q-11 0 -18 -7.5t-7 -17.5v-590z" />
    <glyph glyph-name="minus" unicode="&#x2212;" horiz-adv-x="420" 
d="M402 210v80h-350v-80h350z" />
    <glyph glyph-name="asciitilde" unicode="~" horiz-adv-x="437" 
d="M239 474q-37 19 -66 20t-49 -8.5t-33.5 -23.5t-19.5 -24.5t-6 -11.5l12 -36l11 6t29.5 11t42.5 5t51 -12q42 -20 74 -18.5t53 11.5t31.5 21.5l10.5 11.5l-8 43l-12.5 -4.5t-31.5 -6.5t-42.5 0.5t-46.5 15.5z" />
    <glyph glyph-name="zero" unicode="0" 
d="M325 630h-180q-42 0 -71 -29t-29 -71v-430q0 -42 29 -71t71 -29h180q42 0 71 29t29 71v430q0 42 -29 71t-71 29zM290 550q11 0 18 -7.5t7 -17.5v-420q0 -11 -7 -18t-18 -7h-110q-11 0 -18 7t-7 18v420q0 10 7 17.5t18 7.5h110z" />
    <glyph glyph-name="ae" unicode="&#xe6;" horiz-adv-x="640" 
d="M250 480h-190v-80h178q14 0 22.5 -8t9.5 -22v-95h-140q-42 0 -71 -29t-29 -71v-75q0 -42 29 -71t71 -29h40q33 -2 64.5 11t45.5 45q6 -15 18 -26t27 -18t32 -10t33 -2h200v80h-178q-32 0 -32 32v83h140q42 0 71 29t29 71v85q0 42 -29 71t-71 29h-132h-18q-35 0 -60 -22
q-27 22 -60 22zM140 178q0 11 8 19t19 8h103v-98q0 -11 -8 -19t-19 -8h-76q-11 0 -19 8t-8 19v71zM510 302q0 -11 -8 -19t-19 -8h-103v98q0 11 8 19t19 8h76q11 0 19 -8t8 -19v-71z" />
    <glyph glyph-name="fl" unicode="&#xfb02;" horiz-adv-x="553" 
d="M464 670h-282q-42 0 -71 -29t-29 -71v-90h-60v-80h60v-400h110v400h90v80h-90v85q0 11 7.5 18t17.5 7h137v-590h110v670z" />
    <glyph glyph-name="AE" unicode="&#xc6;" horiz-adv-x="705" 
d="M692 630v-80h-260v-190h240v-80h-240v-200h260v-80h-370v260h-160v-260h-110v530q0 42 29 71t71 29h540zM162 340h160v210h-135q-11 0 -18 -7.5t-7 -17.5v-185z" />
    <glyph glyph-name="OE" unicode="&#x152;" horiz-adv-x="700" 
d="M290 550q11 0 18 -7.5t7 -17.5v-416q0 -14 -7 -21.5t-18 -7.5h-110q-11 0 -18 7t-7 18v420q0 10 7 17.5t18 7.5h110zM145 630q-42 0 -71 -29t-29 -71v-430q0 -42 29 -71t71 -29h540v80h-260v200h240v80h-240v190h260v80h-540z" />
    <glyph glyph-name="oe" unicode="&#x153;" horiz-adv-x="650" 
d="M635 380q0 42 -29 71t-71 29h-150q-17 0 -31.5 -5.5t-26.5 -14.5q-12 9 -26.5 14.5t-30.5 5.5h-125q-42 0 -71 -29t-29 -71v-280q0 -42 29 -71t71 -29h125q32 0 57 19q25 -19 58 -19h220v80h-178q-30 0 -32 29v86h140q42 0 71 29t29 71v85zM260 400q10 0 17.5 -7t7.5 -17
v-271q0 -11 -7.5 -18t-17.5 -7h-80q-11 0 -18 7t-7 18v270q0 10 7 17.5t18 7.5h80zM528 302q0 -11 -8 -19t-19 -8h-103v98q0 11 8 19t19 8h76q11 0 19 -8t8 -19v-71z" />
    <glyph glyph-name="guilsinglright" unicode="&#x203a;" horiz-adv-x="350" 
d="M47 390v-93l189 -69q-48 -18 -94.5 -35.5t-94.5 -34.5v-93q70 31 140 61.5t140 61.5v80q-70 31 -140 61t-140 61z" />
    <glyph glyph-name="guilsinglleft" unicode="&#x2039;" horiz-adv-x="350" 
d="M327 390v-93q-48 -17 -94 -34.5t-94 -34.5q48 -18 94 -35.5t94 -34.5v-93q-70 31 -140 61.5t-140 61.5v80q70 31 140 61t140 61z" />
    </font>
</defs>
</svg>
