<?xml version="1.0" standalone="no"?>
<!DOCTYPE svg PUBLIC "-//W3C//DTD SVG 1.1//EN" "http://www.w3.org/Graphics/SVG/1.1/DTD/svg11.dtd" >
<svg>
<metadata>
Created by FontForge 20120731 at Thu Mar 17 19:22:07 2016
 By ,,,
Copyright (c) Dino dos Santos_DSType, 2003. All rights reserved.
</metadata>
<defs>
<font id="Fragma-MediumItalic" horiz-adv-x="470" >
  <font-face 
    font-family="Fragma"
    font-weight="500"
    font-style="italic"
    font-stretch="normal"
    units-per-em="1000"
    panose-1="0 0 0 0 0 0 0 0 0 0"
    ascent="800"
    descent="-200"
    x-height="480"
    cap-height="630"
    bbox="-80 -190 875 836"
    underline-thickness="50"
    underline-position="-75"
    unicode-range="U+0020-FB02"
  />
<missing-glyph horiz-adv-x="200" 
 />
    <glyph glyph-name=".notdef" horiz-adv-x="200" 
 />
    <glyph glyph-name=".null" horiz-adv-x="0" 
 />
    <glyph glyph-name="m" horiz-adv-x="665" 
d="M479 424q17 25 44 40.5t57 15.5h61q42 0 65 -29t15 -71l-79 -380h-110l77 375q2 11 -3 18t-16 7h-80q-10 0 -18.5 -6.5t-11.5 -17.5l-78 -376h-110l77 375q2 11 -3 18t-16 7h-80q-10 0 -19.5 -7t-11.5 -18l-77 -375h-110l99 480h80l6 -60q17 27 45 43.5t59 16.5h60
q30 0 50.5 -15.5t27.5 -40.5z" />
    <glyph glyph-name="space" unicode=" " horiz-adv-x="200" 
 />
    <glyph glyph-name="G" unicode="G" 
d="M366 260l-38 -180h-128q-11 0 -17.5 7.5t-3.5 18.5l87 419q2 10 11 17.5t20 7.5h229l16 80h-265q-21 0 -40.5 -8t-36 -21.5t-28 -31.5t-15.5 -39l-90 -430q-8 -42 15 -71t65 -29h275l70 340h-180l-16 -80h70z" />
    <glyph glyph-name="I" unicode="I" horiz-adv-x="230" 
d="M292 630h-110l-130 -630h110z" />
    <glyph glyph-name="J" unicode="J" horiz-adv-x="285" 
d="M335 630h-110l-109 -525q-2 -11 -11 -18t-19 -7h-70l-16 -80h105q21 0 40.5 8t36 21.5t28 31.5t15.5 39z" />
    <glyph glyph-name="H" unicode="H" horiz-adv-x="480" 
d="M562 630l-130 -630h-110l58 280h-160l-58 -280h-110l130 630h110l-56 -270h160l56 270h110z" />
    <glyph glyph-name="B" unicode="B" horiz-adv-x="475" 
d="M52 0h280q21 0 40.5 8t36 21.5t28 31.5t15.5 39l31 150q5 23 -4 41t-26 29q20 12 35 29.5t20 40.5l29 140q8 42 -15 71t-65 29h-275zM237 365l39 185h133q11 0 16.5 -7.5t3.5 -17.5l-28 -134q-2 -11 -11.5 -18.5t-20.5 -7.5h-132zM178 80l42 200h135q11 0 16.5 -7.5
t3.5 -17.5l-31 -149q-3 -11 -12 -18.5t-20 -7.5h-134z" />
    <glyph glyph-name="P" unicode="P" horiz-adv-x="465" 
d="M182 630h280q42 0 65 -29t15 -71l-38 -180q-4 -21 -15.5 -39t-28 -31.5t-36.5 -21.5t-41 -8h-170l-51 -250h-110zM431 525q2 11 -3.5 18t-16.5 7h-135l-46 -220h134q26 0 32 26z" />
    <glyph glyph-name="R" unicode="R" horiz-adv-x="495" 
d="M182 630h280q42 0 65 -29t15 -71l-36 -173q-8 -34 -36.5 -58t-62.5 -24h-25q18 -69 35.5 -137.5t37.5 -137.5h-123q-16 69 -30.5 137.5t-30.5 137.5h-52l-57 -275h-110zM431 525q2 11 -3.5 18t-16.5 7h-135l-41 -195h134q26 0 32 26z" />
    <glyph glyph-name="K" unicode="K" horiz-adv-x="540" 
d="M203 200l-41 -200h-110l130 630h110l-57 -278q65 69 128.5 138.5t128.5 139.5h120q-64 -69 -127.5 -137.5t-127.5 -137.5q35 -89 68 -177.5t67 -177.5h-125q-26 66 -50.5 132t-49.5 133q-16 -17 -32 -33z" />
    <glyph glyph-name="N" unicode="N" horiz-adv-x="490" 
d="M572 630l-130 -630h-105l-93 405l-84 -405h-108l130 630h110q23 -105 44 -208t43 -207l86 415h107z" />
    <glyph glyph-name="M" unicode="M" horiz-adv-x="600" 
d="M375 193q41 63 80.5 123.5t80.5 123.5l-91 -440h107l130 630h-120q-48 -78 -96 -154.5t-98 -154.5l-71 309h-115l-130 -630h108l91 440q14 -63 29 -123.5t29 -123.5h66z" />
    <glyph glyph-name="L" unicode="L" horiz-adv-x="465" 
d="M292 630l-114 -550h275l-16 -80h-385l130 630h110z" />
    <glyph glyph-name="V" unicode="V" horiz-adv-x="520" 
d="M145 630h109q5 -127 8 -252.5t8 -252.5q57 127 113 252.5t113 252.5h109q-72 -159 -144 -316.5t-145 -315.5h-145q-6 158 -12.5 315.5t-13.5 316.5z" />
    <glyph glyph-name="W" unicode="W" horiz-adv-x="770" 
d="M456 630h113q-2 -126 -3.5 -250.5t-3.5 -249.5q51 125 102 249.5t102 250.5h109q-67 -159 -134 -316.5t-135 -315.5h-145q1 106 2 211.5t1 212.5q-43 -107 -86 -212.5t-87 -211.5h-145v315q0 158 -1 317h109q-2 -126 -3.5 -250.5t-3.5 -249.5q52 125 104.5 249.5
t104.5 250.5z" />
    <glyph glyph-name="X" unicode="X" horiz-adv-x="540" 
d="M492 630h120q-53 -79 -106.5 -156.5t-107.5 -156.5q21 -80 42.5 -158.5t41.5 -158.5h-120q-14 62 -29 123t-30 123q-40 -62 -80 -123t-81 -123h-120q54 80 106.5 158.5t106.5 158.5q-20 79 -40.5 156.5t-42.5 156.5h120q15 -62 30 -123t29 -123q41 62 81 123t80 123z" />
    <glyph glyph-name="Y" unicode="Y" horiz-adv-x="530" 
d="M307 0h-110l44 216q-22 104 -44 207t-45 207h110l57 -303l183 303h110q-129 -207 -261 -414z" />
    <glyph glyph-name="Z" unicode="Z" horiz-adv-x="445" 
d="M545 630h-383l-16 -80h266q-94 -117 -186 -231.5t-186 -231.5l-18 -87h398l16 80h-281l372 462z" />
    <glyph glyph-name="S" unicode="S" horiz-adv-x="450" 
d="M322 107q-3 -13 -12 -20t-21 -7h-233l-16 -80h270q21 0 40.5 8t36 21.5t28 31.5t15.5 39l34 160q8 42 -15 71t-65 29h-148q-12 0 -18 7t-3 19l29 139q2 10 10.5 17.5t19.5 7.5h230l16 80h-260q-21 0 -40.5 -8t-36 -21.5t-28 -31.5t-15.5 -39l-27 -129l-4 -21
q-9 -42 14 -71t65 -29h145q11 0 16.5 -7t3.5 -18z" />
    <glyph glyph-name="A" unicode="A" horiz-adv-x="480" 
d="M296 550q-11 0 -19.5 -7.5t-10.5 -17.5l-39 -185h160l38 183q2 11 -3.5 19t-16.5 8h-109zM157 530q4 21 15.5 39t28 31.5t36 21.5t40.5 8h180q42 0 65 -29t15 -71l-110 -530h-110l54 260h-160l-54 -260h-110z" />
    <glyph glyph-name="T" unicode="T" horiz-adv-x="460" 
d="M170 0l114 550h-155l16 80h420l-16 -80h-155l-114 -550h-110z" />
    <glyph glyph-name="agrave" unicode="&#xe0;" horiz-adv-x="430" 
d="M55 100q-8 -42 15 -71t65 -29h60q31 0 59 16.5t45 43.5l6 -60h80l100 480h-251q-21 0 -40.5 -8t-36 -21.5t-28 -31.5t-15.5 -39zM296 105q-2 -11 -10.5 -18t-19.5 -7h-80q-11 0 -16.5 7.5t-3.5 17.5l56 270q2 10 11 17.5t20 7.5h105zM333 680l-96 -50q23 -26 45 -50.5
t44 -50.5l60 20q-14 33 -27 65.5t-26 65.5z" />
    <glyph glyph-name="aacute" unicode="&#xe1;" horiz-adv-x="430" 
d="M55 100q-8 -42 15 -71t65 -29h60q31 0 59 16.5t45 43.5l6 -60h80l100 480h-251q-21 0 -40.5 -8t-36 -21.5t-28 -31.5t-15.5 -39zM296 105q-2 -11 -10.5 -18t-19.5 -7h-80q-11 0 -16.5 7.5t-3.5 17.5l56 270q2 10 11 17.5t20 7.5h105zM349 680l74 -50q-33 -26 -65 -50.5
t-66 -50.5l-50 20q26 33 53 65.5t54 65.5z" />
    <glyph glyph-name="acircumflex" unicode="&#xe2;" horiz-adv-x="438" 
d="M55 100q-8 -42 15 -71t65 -29h60q31 0 59 16.5t45 43.5l6 -60h80l100 480h-251q-21 0 -40.5 -8t-36 -21.5t-28 -31.5t-15.5 -39zM296 105q-2 -11 -10.5 -18t-19.5 -7h-80q-11 0 -16.5 7.5t-3.5 17.5l56 270q2 10 11 17.5t20 7.5h105zM505 532q-18 -5 -35 -10l-34 -10
q-22 18 -43.5 36.5t-43.5 37.5q-29 -19 -59 -37.5t-59 -36.5q-16 5 -31 10l-30 10q39 35 78 69.5t79 69.5h80q24 -35 48.5 -69.5t49.5 -69.5z" />
    <glyph glyph-name="atilde" unicode="&#xe3;" horiz-adv-x="430" 
d="M55 100q-8 -42 15 -71t65 -29h60q31 0 59 16.5t45 43.5l6 -60h80l100 480h-251q-21 0 -40.5 -8t-36 -21.5t-28 -31.5t-15.5 -39zM296 105q-2 -11 -10.5 -18t-19.5 -7h-80q-11 0 -16.5 7.5t-3.5 17.5l56 270q2 10 11 17.5t20 7.5h105zM366 629q-33 19 -62 20t-51 -8.5
t-38.5 -23.5t-24 -24.5t-8.5 -11.5l5 -36l12.5 6t32 11t43.5 5t48 -12q38 -20 70 -18.5t55 11.5t36 21.5l13 11.5l1 43l-13 -4.5t-33 -6.5t-43 0.5t-43 15.5z" />
    <glyph glyph-name="adieresis" unicode="&#xe4;" horiz-adv-x="430" 
d="M55 100q-8 -42 15 -71t65 -29h60q31 0 59 16.5t45 43.5l6 -60h80l100 480h-251q-21 0 -40.5 -8t-36 -21.5t-28 -31.5t-15.5 -39zM296 105q-2 -11 -10.5 -18t-19.5 -7h-80q-11 0 -16.5 7.5t-3.5 17.5l56 270q2 10 11 17.5t20 7.5h105zM310 649h-90l-20 -100h90zM485 649
h-90l-20 -100h90z" />
    <glyph glyph-name="aring" unicode="&#xe5;" horiz-adv-x="430" 
d="M55 100q-8 -42 15 -71t65 -29h60q31 0 59 16.5t45 43.5l6 -60h80l100 480h-251q-21 0 -40.5 -8t-36 -21.5t-28 -31.5t-15.5 -39zM296 105q-2 -11 -10.5 -18t-19.5 -7h-80q-11 0 -16.5 7.5t-3.5 17.5l56 270q2 10 11 17.5t20 7.5h105zM393 679q24 0 37.5 -15.5t8.5 -38.5
l-11 -56q-5 -23 -25.5 -39t-44.5 -16h-64q-23 0 -37 16t-9 39l11 56q5 23 26 38.5t44 15.5h64zM373 633h-44q-8 0 -14 -4.5t-8 -11.5l-8 -39q-2 -7 2.5 -11.5t12.5 -4.5h44q7 0 13.5 4.5t8.5 11.5l8 39q2 7 -3 11.5t-12 4.5z" />
    <glyph glyph-name="egrave" unicode="&#xe8;" horiz-adv-x="430" 
d="M65 100q-8 -42 15 -71t65 -29h220l16 80h-183q-27 0 -21 27l16 78h140q21 0 40.5 8t36 21.5t28.5 31.5t16 39l20 95q8 42 -15 71t-65 29h-150q-21 0 -40.5 -8t-36 -21.5t-28 -31.5t-15.5 -39zM345 292q-2 -11 -11.5 -19t-20.5 -8h-103l22 108q2 11 12 19t21 8h76
q11 0 17 -8t4 -19zM286 680l-96 -50q23 -26 45 -50.5t44 -50.5l60 20q-14 33 -27 65.5t-26 65.5z" />
    <glyph glyph-name="eacute" unicode="&#xe9;" horiz-adv-x="430" 
d="M65 100q-8 -42 15 -71t65 -29h220l16 80h-183q-27 0 -21 27l16 78h140q21 0 40.5 8t36 21.5t28.5 31.5t16 39l20 95q8 42 -15 71t-65 29h-150q-21 0 -40.5 -8t-36 -21.5t-28 -31.5t-15.5 -39zM345 292q-2 -11 -11.5 -19t-20.5 -8h-103l22 108q2 11 12 19t21 8h76
q11 0 17 -8t4 -19zM372 680l74 -50q-33 -26 -65 -50.5t-66 -50.5l-50 20q26 33 53 65.5t54 65.5z" />
    <glyph glyph-name="ecircumflex" unicode="&#xea;" horiz-adv-x="430" 
d="M65 100q-8 -42 15 -71t65 -29h220l16 80h-183q-27 0 -21 27l16 78h140q21 0 40.5 8t36 21.5t28.5 31.5t16 39l20 95q8 42 -15 71t-65 29h-150q-21 0 -40.5 -8t-36 -21.5t-28 -31.5t-15.5 -39zM345 292q-2 -11 -11.5 -19t-20.5 -8h-103l22 108q2 11 12 19t21 8h76
q11 0 17 -8t4 -19zM498 540q-18 -5 -35 -10l-34 -10q-22 18 -43.5 36.5t-43.5 37.5q-29 -19 -59 -37.5t-59 -36.5q-16 5 -31 10l-30 10q39 35 78 69.5t79 69.5h80q24 -35 48.5 -69.5t49.5 -69.5z" />
    <glyph glyph-name="edieresis" unicode="&#xeb;" horiz-adv-x="430" 
d="M65 100q-8 -42 15 -71t65 -29h220l16 80h-183q-27 0 -21 27l16 78h140q21 0 40.5 8t36 21.5t28.5 31.5t16 39l20 95q8 42 -15 71t-65 29h-150q-21 0 -40.5 -8t-36 -21.5t-28 -31.5t-15.5 -39zM345 292q-2 -11 -11.5 -19t-20.5 -8h-103l22 108q2 11 12 19t21 8h76
q11 0 17 -8t4 -19zM312 649h-90l-20 -100h90zM487 649h-90l-20 -100h90z" />
    <glyph glyph-name="dotlessi" unicode="&#x131;" horiz-adv-x="230" 
d="M261 480h-110l-99 -480h110z" />
    <glyph glyph-name="iacute" unicode="&#xed;" horiz-adv-x="231" 
d="M261 480h-110l-99 -480h110zM272 680l74 -50q-33 -26 -65 -50.5t-66 -50.5l-50 20q26 33 53 65.5t54 65.5z" />
    <glyph glyph-name="igrave" unicode="&#xec;" horiz-adv-x="240" 
d="M271 480h-110l-99 -480h110zM227 680l-96 -50q23 -26 45 -50.5t44 -50.5l60 20q-14 33 -27 65.5t-26 65.5z" />
    <glyph glyph-name="icircumflex" unicode="&#xee;" horiz-adv-x="245" 
d="M268 480h-110l-99 -480h110zM403 540q-18 -5 -35 -10l-34 -10q-22 18 -43.5 36.5t-43.5 37.5q-29 -19 -59 -37.5t-59 -36.5q-16 5 -31 10l-30 10q39 35 78 69.5t79 69.5h80q24 -35 48.5 -69.5t49.5 -69.5z" />
    <glyph glyph-name="idieresis" unicode="&#xef;" horiz-adv-x="250" 
d="M271 480h-110l-99 -480h110zM212 649h-90l-20 -100h90zM387 649h-90l-20 -100h90z" />
    <glyph glyph-name="oacute" unicode="&#xf3;" horiz-adv-x="440" 
d="M263 400q-11 0 -20 -7.5t-11 -17.5l-56 -270q-2 -11 3.5 -18t16.5 -7h80q10 0 19 7.5t12 20.5l55 267q2 10 -3.5 17.5t-15.5 7.5h-80zM124 380q4 21 15.5 39t28 31.5t36 21.5t40.5 8h150q42 0 65 -29t15 -71l-59 -280q-4 -18 -13.5 -34.5t-23 -29t-30 -21t-34.5 -11.5
q-17 -4 -45 -4h-124q-42 0 -65 29t-15 71zM387 680l74 -50q-33 -26 -65 -50.5t-66 -50.5l-50 20q26 33 53 65.5t54 65.5z" />
    <glyph glyph-name="ograve" unicode="&#xf2;" horiz-adv-x="440" 
d="M263 400q-11 0 -20 -7.5t-11 -17.5l-56 -270q-2 -11 3.5 -18t16.5 -7h80q10 0 19 7.5t12 20.5l55 267q2 10 -3.5 17.5t-15.5 7.5h-80zM124 380q4 21 15.5 39t28 31.5t36 21.5t40.5 8h150q42 0 65 -29t15 -71l-59 -280q-4 -18 -13.5 -34.5t-23 -29t-30 -21t-34.5 -11.5
q-17 -4 -45 -4h-124q-42 0 -65 29t-15 71zM296 680l-96 -50q23 -26 45 -50.5t44 -50.5l60 20q-14 33 -27 65.5t-26 65.5z" />
    <glyph glyph-name="ocircumflex" unicode="&#xf4;" horiz-adv-x="440" 
d="M263 400q-11 0 -20 -7.5t-11 -17.5l-56 -270q-2 -11 3.5 -18t16.5 -7h80q10 0 19 7.5t12 20.5l55 267q2 10 -3.5 17.5t-15.5 7.5h-80zM124 380q4 21 15.5 39t28 31.5t36 21.5t40.5 8h150q42 0 65 -29t15 -71l-59 -280q-4 -18 -13.5 -34.5t-23 -29t-30 -21t-34.5 -11.5
q-17 -4 -45 -4h-124q-42 0 -65 29t-15 71zM498 540q-18 -5 -35 -10l-34 -10q-22 18 -43.5 36.5t-43.5 37.5q-29 -19 -59 -37.5t-59 -36.5q-16 5 -31 10l-30 10q39 35 78 69.5t79 69.5h80q24 -35 48.5 -69.5t49.5 -69.5z" />
    <glyph glyph-name="odieresis" unicode="&#xf6;" horiz-adv-x="440" 
d="M263 400q-11 0 -20 -7.5t-11 -17.5l-56 -270q-2 -11 3.5 -18t16.5 -7h80q10 0 19 7.5t12 20.5l55 267q2 10 -3.5 17.5t-15.5 7.5h-80zM124 380q4 21 15.5 39t28 31.5t36 21.5t40.5 8h150q42 0 65 -29t15 -71l-59 -280q-4 -18 -13.5 -34.5t-23 -29t-30 -21t-34.5 -11.5
q-17 -4 -45 -4h-124q-42 0 -65 29t-15 71zM306 649h-90l-20 -100h90zM481 649h-90l-20 -100h90z" />
    <glyph glyph-name="otilde" unicode="&#xf5;" horiz-adv-x="440" 
d="M263 400q-11 0 -20 -7.5t-11 -17.5l-56 -270q-2 -11 3.5 -18t16.5 -7h80q10 0 19 7.5t12 20.5l55 267q2 10 -3.5 17.5t-15.5 7.5h-80zM124 380q4 21 15.5 39t28 31.5t36 21.5t40.5 8h150q42 0 65 -29t15 -71l-59 -280q-4 -18 -13.5 -34.5t-23 -29t-30 -21t-34.5 -11.5
q-17 -4 -45 -4h-124q-42 0 -65 29t-15 71zM350 629q-33 19 -62 20t-51 -8.5t-38.5 -23.5t-24 -24.5t-8.5 -11.5l5 -36l12.5 6t32 11t43.5 5t48 -12q38 -20 70 -18.5t55 11.5t36 21.5l13 11.5l1 43l-13 -4.5t-33 -6.5t-43 0.5t-43 15.5z" />
    <glyph glyph-name="ugrave" unicode="&#xf9;" horiz-adv-x="445" 
d="M308 105q-2 -11 -10.5 -18t-19.5 -7h-80q-11 0 -16.5 7t-3.5 18l78 375h-110l-79 -380q-8 -42 15 -71t65 -29h60q31 0 59 16.5t45 43.5l6 -60h80l99 480h-110zM321 680l-96 -50q23 -26 45 -50.5t44 -50.5l60 20q-14 33 -27 65.5t-26 65.5z" />
    <glyph glyph-name="uacute" unicode="&#xfa;" horiz-adv-x="445" 
d="M308 105q-2 -11 -10.5 -18t-19.5 -7h-80q-11 0 -16.5 7t-3.5 18l78 375h-110l-79 -380q-8 -42 15 -71t65 -29h60q31 0 59 16.5t45 43.5l6 -60h80l99 480h-110zM401 680l74 -50q-33 -26 -65 -50.5t-66 -50.5l-50 20q26 33 53 65.5t54 65.5z" />
    <glyph glyph-name="ucircumflex" unicode="&#xfb;" horiz-adv-x="445" 
d="M308 105q-2 -11 -10.5 -18t-19.5 -7h-80q-11 0 -16.5 7t-3.5 18l78 375h-110l-79 -380q-8 -42 15 -71t65 -29h60q31 0 59 16.5t45 43.5l6 -60h80l99 480h-110zM497 540q-18 -5 -35 -10l-34 -10q-22 18 -43.5 36.5t-43.5 37.5q-29 -19 -59 -37.5t-59 -36.5q-16 5 -31 10
l-30 10q39 35 78 69.5t79 69.5h80q24 -35 48.5 -69.5t49.5 -69.5z" />
    <glyph glyph-name="udieresis" unicode="&#xfc;" horiz-adv-x="445" 
d="M308 105q-2 -11 -10.5 -18t-19.5 -7h-80q-11 0 -16.5 7t-3.5 18l78 375h-110l-79 -380q-8 -42 15 -71t65 -29h60q31 0 59 16.5t45 43.5l6 -60h80l99 480h-110zM306 649h-90l-20 -100h90zM481 649h-90l-20 -100h90z" />
    <glyph glyph-name="Ugrave" unicode="&#xd9;" 
d="M196 80q-11 0 -16.5 7t-3.5 18l109 525h-110l-110 -530q-8 -42 15 -71t65 -29h180q21 0 40.5 8t36 21.5t28 31.5t15.5 39l110 530h-110l-108 -523q-3 -13 -12 -20t-20 -7h-109zM326 830l-96 -50q23 -26 45 -50.5t44 -50.5l60 20q-14 33 -27 65.5t-26 65.5z" />
    <glyph glyph-name="Uacute" unicode="&#xda;" 
d="M196 80q-11 0 -16.5 7t-3.5 18l109 525h-110l-110 -530q-8 -42 15 -71t65 -29h180q21 0 40.5 8t36 21.5t28 31.5t15.5 39l110 530h-110l-108 -523q-3 -13 -12 -20t-20 -7h-109zM389 830l74 -50q-33 -26 -65 -50.5t-66 -50.5l-50 20q26 33 53 65.5t54 65.5z" />
    <glyph glyph-name="Ucircumflex" unicode="&#xdb;" 
d="M196 80q-11 0 -16.5 7t-3.5 18l109 525h-110l-110 -530q-8 -42 15 -71t65 -29h180q21 0 40.5 8t36 21.5t28 31.5t15.5 39l110 530h-110l-108 -523q-3 -13 -12 -20t-20 -7h-109zM519 695q-18 -5 -35 -10l-34 -10q-22 18 -43.5 36.5t-43.5 37.5q-29 -19 -59 -37.5
t-59 -36.5q-16 5 -31 10l-30 10q39 35 78 69.5t79 69.5h80q24 -35 48.5 -69.5t49.5 -69.5z" />
    <glyph glyph-name="Udieresis" unicode="&#xdc;" 
d="M196 80q-11 0 -16.5 7t-3.5 18l109 525h-110l-110 -530q-8 -42 15 -71t65 -29h180q21 0 40.5 8t36 21.5t28 31.5t15.5 39l110 530h-110l-108 -523q-3 -13 -12 -20t-20 -7h-109zM322 799h-90l-20 -100h90zM497 799h-90l-20 -100h90z" />
    <glyph glyph-name="Igrave" unicode="&#xcc;" horiz-adv-x="236" 
d="M298 630h-110l-130 -630h110zM227 830l-96 -50q23 -26 45 -50.5t44 -50.5l60 20q-14 33 -27 65.5t-26 65.5z" />
    <glyph glyph-name="Iacute" unicode="&#xcd;" horiz-adv-x="233" 
d="M292 630h-110l-130 -630h110zM274 830l74 -50q-33 -26 -65 -50.5t-66 -50.5l-50 20q26 33 53 65.5t54 65.5z" />
    <glyph glyph-name="Icircumflex" unicode="&#xce;" horiz-adv-x="245" 
d="M301 630h-110l-130 -630h110zM403 690q-18 -5 -35 -10l-34 -10q-22 18 -43.5 36.5t-43.5 37.5q-29 -19 -59 -37.5t-59 -36.5q-16 5 -31 10l-30 10q39 35 78 69.5t79 69.5h80q24 -35 48.5 -69.5t49.5 -69.5z" />
    <glyph glyph-name="Idieresis" unicode="&#xcf;" horiz-adv-x="250" 
d="M302 630h-110l-130 -630h110zM212 799h-90l-20 -100h90zM387 799h-90l-20 -100h90z" />
    <glyph glyph-name="Egrave" unicode="&#xc8;" horiz-adv-x="455" 
d="M552 630l-16 -80h-260l-40 -190h240l-16 -80h-240l-42 -200h260l-16 -80h-370l130 630h370zM352 830l-96 -50q23 -26 45 -50.5t44 -50.5l60 20q-14 33 -27 65.5t-26 65.5z" />
    <glyph glyph-name="Eacute" unicode="&#xc9;" horiz-adv-x="455" 
d="M552 630l-16 -80h-260l-40 -190h240l-16 -80h-240l-42 -200h260l-16 -80h-370l130 630h370zM386 831l74 -50q-33 -26 -65 -50.5t-66 -50.5l-50 20q26 33 53 65.5t54 65.5z" />
    <glyph glyph-name="Ecircumflex" unicode="&#xca;" horiz-adv-x="455" 
d="M552 630l-16 -80h-260l-40 -190h240l-16 -80h-240l-42 -200h260l-16 -80h-370l130 630h370zM521 690q-18 -5 -35 -10l-34 -10q-22 18 -43.5 36.5t-43.5 37.5q-29 -19 -59 -37.5t-59 -36.5q-16 5 -31 10l-30 10q39 35 78 69.5t79 69.5h80q24 -35 48.5 -69.5t49.5 -69.5z
" />
    <glyph glyph-name="Edieresis" unicode="&#xcb;" horiz-adv-x="455" 
d="M552 630l-16 -80h-260l-40 -190h240l-16 -80h-240l-42 -200h260l-16 -80h-370l130 630h370zM321 799h-90l-20 -100h90zM496 799h-90l-20 -100h90z" />
    <glyph glyph-name="Agrave" unicode="&#xc0;" horiz-adv-x="480" 
d="M296 550q-11 0 -19.5 -7.5t-10.5 -17.5l-39 -185h160l38 183q2 11 -3.5 19t-16.5 8h-109zM157 530q4 21 15.5 39t28 31.5t36 21.5t40.5 8h180q42 0 65 -29t15 -71l-110 -530h-110l54 260h-160l-54 -260h-110zM326 830l-96 -50q23 -26 45 -50.5t44 -50.5l60 20
q-14 33 -27 65.5t-26 65.5z" />
    <glyph glyph-name="Aacute" unicode="&#xc1;" horiz-adv-x="480" 
d="M296 550q-11 0 -19.5 -7.5t-10.5 -17.5l-39 -185h160l38 183q2 11 -3.5 19t-16.5 8h-109zM157 530q4 21 15.5 39t28 31.5t36 21.5t40.5 8h180q42 0 65 -29t15 -71l-110 -530h-110l54 260h-160l-54 -260h-110zM395 830l74 -50q-33 -26 -65 -50.5t-66 -50.5l-50 20
q26 33 53 65.5t54 65.5z" />
    <glyph glyph-name="Acircumflex" unicode="&#xc2;" horiz-adv-x="480" 
d="M296 550q-11 0 -19.5 -7.5t-10.5 -17.5l-39 -185h160l38 183q2 11 -3.5 19t-16.5 8h-109zM157 530q4 21 15.5 39t28 31.5t36 21.5t40.5 8h180q42 0 65 -29t15 -71l-110 -530h-110l54 260h-160l-54 -260h-110zM524 690q-18 -5 -35 -10l-34 -10q-22 18 -43.5 36.5
t-43.5 37.5q-29 -19 -59 -37.5t-59 -36.5q-16 5 -31 10l-30 10q39 35 78 69.5t79 69.5h80q24 -35 48.5 -69.5t49.5 -69.5z" />
    <glyph glyph-name="Atilde" unicode="&#xc3;" horiz-adv-x="480" 
d="M296 550q-11 0 -19.5 -7.5t-10.5 -17.5l-39 -185h160l38 183q2 11 -3.5 19t-16.5 8h-109zM157 530q4 21 15.5 39t28 31.5t36 21.5t40.5 8h180q42 0 65 -29t15 -71l-110 -530h-110l54 260h-160l-54 -260h-110zM385 774q-33 19 -62 20t-51 -8.5t-38.5 -23.5t-24 -24.5
t-8.5 -11.5l5 -36l12.5 6t32 11t43.5 5t48 -12q38 -20 70 -18.5t55 11.5t36 21.5l13 11.5l1 43l-13 -4.5t-33 -6.5t-43 0.5t-43 15.5z" />
    <glyph glyph-name="Adieresis" unicode="&#xc4;" horiz-adv-x="480" 
d="M296 550q-11 0 -19.5 -7.5t-10.5 -17.5l-39 -185h160l38 183q2 11 -3.5 19t-16.5 8h-109zM157 530q4 21 15.5 39t28 31.5t36 21.5t40.5 8h180q42 0 65 -29t15 -71l-110 -530h-110l54 260h-160l-54 -260h-110zM326 799h-90l-20 -100h90zM501 799h-90l-20 -100h90z" />
    <glyph glyph-name="Aring" unicode="&#xc5;" horiz-adv-x="480" 
d="M296 550q-11 0 -19.5 -7.5t-10.5 -17.5l-39 -185h160l38 183q2 11 -3.5 19t-16.5 8h-109zM157 530q4 21 15.5 39t28 31.5t36 21.5t40.5 8h180q42 0 65 -29t15 -71l-110 -530h-110l54 260h-160l-54 -260h-110zM410 821q24 0 37.5 -15.5t8.5 -38.5l-11 -56
q-5 -23 -25.5 -39t-44.5 -16h-64q-23 0 -37 16t-9 39l11 56q5 23 26 38.5t44 15.5h64zM390 775h-44q-8 0 -14 -4.5t-8 -11.5l-8 -39q-2 -7 2.5 -11.5t12.5 -4.5h44q7 0 13.5 4.5t8.5 11.5l8 39q2 7 -3 11.5t-12 4.5z" />
    <glyph glyph-name="Ograve" unicode="&#xd2;" 
d="M455 630h-180q-21 0 -40.5 -8t-36 -21.5t-28 -31.5t-15.5 -39l-90 -430q-8 -42 15 -71t65 -29h180q21 0 40.5 8t36 21.5t28 31.5t15.5 39l90 430q8 42 -15 71t-65 29zM404 550q11 0 16.5 -7.5t3.5 -17.5l-88 -420q-2 -11 -10.5 -18t-19.5 -7h-110q-11 0 -16.5 7t-3.5 18
l88 420q2 10 10.5 17.5t19.5 7.5h110zM316 830l-96 -50q23 -26 45 -50.5t44 -50.5l60 20q-14 33 -27 65.5t-26 65.5z" />
    <glyph glyph-name="Oacute" unicode="&#xd3;" 
d="M455 630h-180q-21 0 -40.5 -8t-36 -21.5t-28 -31.5t-15.5 -39l-90 -430q-8 -42 15 -71t65 -29h180q21 0 40.5 8t36 21.5t28 31.5t15.5 39l90 430q8 42 -15 71t-65 29zM404 550q11 0 16.5 -7.5t3.5 -17.5l-88 -420q-2 -11 -10.5 -18t-19.5 -7h-110q-11 0 -16.5 7t-3.5 18
l88 420q2 10 10.5 17.5t19.5 7.5h110zM391 830l74 -50q-33 -26 -65 -50.5t-66 -50.5l-50 20q26 33 53 65.5t54 65.5z" />
    <glyph glyph-name="Ocircumflex" unicode="&#xd4;" 
d="M455 630h-180q-21 0 -40.5 -8t-36 -21.5t-28 -31.5t-15.5 -39l-90 -430q-8 -42 15 -71t65 -29h180q21 0 40.5 8t36 21.5t28 31.5t15.5 39l90 430q8 42 -15 71t-65 29zM404 550q11 0 16.5 -7.5t3.5 -17.5l-88 -420q-2 -11 -10.5 -18t-19.5 -7h-110q-11 0 -16.5 7t-3.5 18
l88 420q2 10 10.5 17.5t19.5 7.5h110zM510 697q-18 -5 -35 -10l-34 -10q-22 18 -43.5 36.5t-43.5 37.5q-29 -19 -59 -37.5t-59 -36.5q-16 5 -31 10l-30 10q39 35 78 69.5t79 69.5h80q24 -35 48.5 -69.5t49.5 -69.5z" />
    <glyph glyph-name="Otilde" unicode="&#xd5;" 
d="M455 630h-180q-21 0 -40.5 -8t-36 -21.5t-28 -31.5t-15.5 -39l-90 -430q-8 -42 15 -71t65 -29h180q21 0 40.5 8t36 21.5t28 31.5t15.5 39l90 430q8 42 -15 71t-65 29zM404 550q11 0 16.5 -7.5t3.5 -17.5l-88 -420q-2 -11 -10.5 -18t-19.5 -7h-110q-11 0 -16.5 7t-3.5 18
l88 420q2 10 10.5 17.5t19.5 7.5h110zM369 774q-33 19 -62 20t-51 -8.5t-38.5 -23.5t-24 -24.5t-8.5 -11.5l5 -36l12.5 6t32 11t43.5 5t48 -12q38 -20 70 -18.5t55 11.5t36 21.5l13 11.5l1 43l-13 -4.5t-33 -6.5t-43 0.5t-43 15.5z" />
    <glyph glyph-name="Odieresis" unicode="&#xd6;" 
d="M455 630h-180q-21 0 -40.5 -8t-36 -21.5t-28 -31.5t-15.5 -39l-90 -430q-8 -42 15 -71t65 -29h180q21 0 40.5 8t36 21.5t28 31.5t15.5 39l90 430q8 42 -15 71t-65 29zM404 550q11 0 16.5 -7.5t3.5 -17.5l-88 -420q-2 -11 -10.5 -18t-19.5 -7h-110q-11 0 -16.5 7t-3.5 18
l88 420q2 10 10.5 17.5t19.5 7.5h110zM326 800h-90l-20 -100h90zM501 800h-90l-20 -100h90z" />
    <glyph glyph-name="Yacute" unicode="&#xdd;" horiz-adv-x="480" 
d="M278 0h-110l44 216q-22 104 -44 207t-45 207h110l57 -303l183 303h110q-129 -207 -261 -414zM421 820l74 -50q-33 -26 -65 -50.5t-66 -50.5l-50 20q26 33 53 65.5t54 65.5z" />
    <glyph glyph-name="yacute" unicode="&#xfd;" horiz-adv-x="455" 
d="M278 80h-80q-11 0 -16.5 7t-3.5 18l78 375h-110l-79 -380q-8 -42 15 -71t65 -29h77q20 0 38 9t32 25l-21 -99q-2 -11 -10.5 -18t-19.5 -7h-170l-17 -80h205q21 0 41 8t36.5 21.5t28 31.5t15.5 39l114 550h-110l-78 -377q-3 -10 -11 -16.5t-19 -6.5zM397 680l74 -50
q-33 -26 -65 -50.5t-66 -50.5l-50 20q26 33 53 65.5t54 65.5z" />
    <glyph glyph-name="ydieresis" unicode="&#xff;" horiz-adv-x="455" 
d="M278 80h-80q-11 0 -16.5 7t-3.5 18l78 375h-110l-79 -380q-8 -42 15 -71t65 -29h77q20 0 38 9t32 25l-21 -99q-2 -11 -10.5 -18t-19.5 -7h-170l-17 -80h205q21 0 41 8t36.5 21.5t28 31.5t15.5 39l114 550h-110l-78 -377q-3 -10 -11 -16.5t-19 -6.5zM306 649h-90l-20 -100
h90zM481 649h-90l-20 -100h90z" />
    <glyph glyph-name="ntilde" unicode="&#xf1;" horiz-adv-x="445" 
d="M239 375q2 11 11 18t20 7h80q11 0 16 -7t3 -18l-77 -375h110l79 380q8 42 -15 71t-65 29h-60q-31 0 -59 -16.5t-45 -43.5l-6 60h-80l-99 -480h110zM366 629q-33 19 -62 20t-51 -8.5t-38.5 -23.5t-24 -24.5t-8.5 -11.5l5 -36l12.5 6t32 11t43.5 5t48 -12q38 -20 70 -18.5
t55 11.5t36 21.5l13 11.5l1 43l-13 -4.5t-33 -6.5t-43 0.5t-43 15.5z" />
    <glyph glyph-name="Ntilde" unicode="&#xd1;" horiz-adv-x="490" 
d="M572 630l-130 -630h-105l-93 405l-84 -405h-108l130 630h110q23 -105 44 -208t43 -207l86 415h107zM384 773q-33 19 -62 20t-51 -8.5t-38.5 -23.5t-24 -24.5t-8.5 -11.5l5 -36l12.5 6t32 11t43.5 5t48 -12q38 -20 70 -18.5t55 11.5t36 21.5l13 11.5l1 43l-13 -4.5
t-33 -6.5t-43 0.5t-43 15.5z" />
    <glyph glyph-name="ccedilla" unicode="&#xe7;" horiz-adv-x="390" 
d="M232 375q2 10 11 17.5t20 7.5h187l16 80h-222q-21 0 -40.5 -8t-36 -21.5t-28 -31.5t-15.5 -39l-59 -280q-8 -42 15 -71t65 -29h222l16 80h-186q-26 0 -20 26zM240 -95l15 75h-85l-15 -75h25l-20 -95h40q11 24 20 48t20 47z" />
    <glyph glyph-name="Ccedilla" unicode="&#xc7;" horiz-adv-x="435" 
d="M264 525q2 10 10.5 17.5t19.5 7.5h225l16 80h-260q-21 0 -40.5 -8t-36 -21.5t-28 -31.5t-15.5 -39l-90 -430q-8 -42 15 -71t65 -29h260l16 80h-225q-12 0 -17 7t-3 18zM245 -95l15 75h-85l-15 -75h25l-20 -95h40q11 24 20 48t20 47z" />
    <glyph glyph-name="grave" unicode="`" horiz-adv-x="200" 
d="M246 680l-96 -50q23 -26 45 -50.5t44 -50.5l60 20q-14 33 -27 65.5t-26 65.5z" />
    <glyph glyph-name="acute" unicode="&#xb4;" horiz-adv-x="200" 
d="M241 680l74 -50q-33 -26 -65 -50.5t-66 -50.5l-50 20q26 33 53 65.5t54 65.5z" />
    <glyph glyph-name="colon" unicode=":" horiz-adv-x="190" 
d="M162 100h-90l-20 -100h90zM208 320h-90l-21 -100h90z" />
    <glyph glyph-name="dieresis" unicode="&#xa8;" horiz-adv-x="380" 
d="M276 649h-90l-20 -100h90zM451 649h-90l-20 -100h90z" />
    <glyph glyph-name="equal" unicode="=" horiz-adv-x="420" 
d="M462 290l16 80h-350l-16 -80h350zM429 130l16 80h-350l-16 -80h350z" />
    <glyph glyph-name="plus" unicode="+" horiz-adv-x="420" 
d="M202 75h80l28 135h135l17 80h-135l28 135h-80l-28 -135h-135l-17 -80h135z" />
    <glyph glyph-name="quotesingle" unicode="'" horiz-adv-x="190" 
d="M252 530l20 100h-90l-20 -100h30l-22 -105h40q11 26 21 52.5t21 52.5z" />
    <glyph glyph-name="quotedbl" unicode="&#x22;" horiz-adv-x="370" 
d="M252 530l20 100h-90l-20 -100h30l-22 -105h40q11 26 21 52.5t21 52.5zM407 530l20 100h-90l-20 -100h30l-22 -105h40q11 26 21 52.5t21 52.5z" />
    <glyph glyph-name="underscore" unicode="_" horiz-adv-x="420" 
d="M381 -100l16 80h-350l-16 -80h350z" />
    <glyph glyph-name="endash" unicode="&#x2013;" horiz-adv-x="420" 
d="M445 210l17 80h-350l-17 -80h350z" />
    <glyph glyph-name="emdash" unicode="&#x2014;" horiz-adv-x="520" 
d="M545 210l17 80h-450l-17 -80h450z" />
    <glyph glyph-name="divide" unicode="&#xf7;" horiz-adv-x="490" 
d="M493 210l17 80h-380l-17 -80h380zM338 160h-90l-21 -100h90zM396 440h-90l-21 -100h90z" />
    <glyph glyph-name="Ydieresis" unicode="&#x178;" horiz-adv-x="500" 
d="M278 0h-110l44 216q-22 104 -44 207t-45 207h110l57 -303l183 303h110q-129 -207 -261 -414zM342 799h-90l-20 -100h90zM517 799h-90l-20 -100h90z" />
    <glyph glyph-name="Euro" unicode="&#x20ac;" horiz-adv-x="465" 
d="M397 220l15 70h-160l8 40h160l15 70h-160l26 125q2 10 11 17.5t20 7.5h209l16 80h-245q-21 0 -40.5 -8t-36 -21.5t-28 -31.5t-15.5 -39l-27 -130h-60l-15 -70h60l-8 -40h-60l-15 -70h60l-25 -120q-8 -42 15 -71t65 -29h245l16 80h-208q-12 0 -18 7t-3 19l23 114h160z" />
    <glyph glyph-name="section" unicode="&#xa7;" horiz-adv-x="450" 
d="M385 365q42 0 65 -29t15 -71l-68 -324q-4 -21 -15.5 -39t-28 -31.5t-36.5 -21.5t-41 -8h-270l17 80h233q12 0 21 7t12 20l31 152q2 11 -3.5 18t-16.5 7h-145q-36 0 -58.5 23t-20.5 58q0 11 2 22.5t4 22.5l59 284q4 21 16 39t28.5 31.5t36 21.5t40.5 8h260l-17 -80h-230
q-11 0 -19.5 -7.5t-10.5 -17.5l-29 -139q-6 -26 21 -26h148zM183 232q-3 -12 2.5 -19.5t18.5 -7.5h107q8 0 15.5 -1t14.5 -3l13 59q2 11 -3.5 18t-16.5 7h-109q-8 0 -15.5 1t-14.5 3z" />
    <glyph glyph-name="tilde" unicode="&#x2dc;" horiz-adv-x="437" 
d="M369 629q-33 19 -62 20t-51 -8.5t-38.5 -23.5t-24 -24.5t-8.5 -11.5l5 -36l12.5 6t32 11t43.5 5t48 -12q38 -20 70 -18.5t55 11.5t36 21.5l13 11.5l1 43l-13 -4.5t-33 -6.5t-43 0.5t-43 15.5z" />
    <glyph glyph-name="greater" unicode="&#x3e;" horiz-adv-x="350" 
d="M128 390l-20 -93l175 -69q-51 -18 -102 -35.5t-102 -34.5l-19 -93l306 123l16 80q-63 31 -127 61t-127 61z" />
    <glyph glyph-name="lessequal" unicode="&#x2264;" horiz-adv-x="420" 
d="M458 490l-19 -93q-51 -17 -101 -34.5t-101 -34.5q44 -18 86.5 -35.5t86.5 -34.5l-19 -93l-255 123l17 80q77 31 153 61t152 61zM405 40l16 80h-350l-16 -80h350z" />
    <glyph glyph-name="degree" unicode="&#xb0;" horiz-adv-x="284" 
d="M300 622q22 0 34.5 -14t8.5 -35l-11 -51q-5 -21 -23 -35.5t-40 -14.5h-58q-21 0 -34.5 14.5t-8.5 35.5l11 51q4 21 23 35t40 14h58zM285 583h-44q-8 0 -14.5 -4.5t-8.5 -11.5l-8 -39q-2 -7 3 -11.5t13 -4.5h44q7 0 13 4.5t8 11.5l8 39q2 7 -2.5 11.5t-11.5 4.5z" />
    <glyph glyph-name="comma" unicode="," horiz-adv-x="190" 
d="M142 0l20 100h-90l-20 -100h30l-22 -105h40q11 26 21 52.5t21 52.5z" />
    <glyph glyph-name="hyphen" unicode="-" horiz-adv-x="420" 
d="M445 210l17 80h-350l-17 -80h350z" />
    <glyph glyph-name="trademark" unicode="&#x2122;" horiz-adv-x="596" 
d="M228 400l38 182h-85l6 30h200l-6 -30h-85l-38 -182h-30zM518 400q26 38 51 76t51 76l-31 -152h30l44 212h-35q-31 -45 -60.5 -90t-60.5 -90l-22 90l-22 90h-35l-44 -212h30l31 152q11 -38 20 -76t20 -76h33z" />
    <glyph glyph-name="at" unicode="@" horiz-adv-x="670" 
d="M416 175q17 0 31 11.5t17 28.5l15 70h-130q-17 0 -31 -11.5t-18 -28.5l-6 -30q-3 -17 6 -28.5t26 -11.5h90zM308 425l12 60h160q42 0 65 -29t15 -71l-44 -210h30q17 0 31 11.5t17 28.5l62 295q3 17 -6 28.5t-26 11.5h-350q-17 0 -31 -11.5t-17 -28.5l-86 -410
q-3 -17 6 -28.5t26 -11.5h100l-12 -60h-100q-42 0 -65 29t-15 71l86 410q4 21 15.5 39t28 31.5t36 21.5t40.5 8h350q42 0 65 -29t15 -71l-62 -295q-4 -21 -15.5 -39t-28 -31.5t-36.5 -21.5t-41 -8h-60l-5 60q-17 -27 -45.5 -43.5t-59.5 -16.5h-50q-42 0 -64.5 29t-14.5 71
l6 30q5 21 16.5 39t28 31.5t36 21.5t40.5 8h130l8 35q4 20 -6 32.5t-30 12.5h-155z" />
    <glyph glyph-name="questiondown" unicode="&#xbf;" horiz-adv-x="460" 
d="M240 305h-90l-34 -165h163q15 0 21.5 -9t3.5 -23l-32 -153q-2 -10 -10.5 -17.5t-19.5 -7.5h-230l-16 -80h259q21 0 41 8t36.5 21.5t28 31.5t15.5 39l35 170q9 42 -14 71t-65 29h-100l4 42t4 43zM256 380h-90l20 100h90z" />
    <glyph glyph-name="semicolon" unicode=";" horiz-adv-x="190" 
d="M142 0l20 100h-90l-20 -100h30l-22 -105h40q11 26 21 52.5t21 52.5zM208 320h-90l-21 -100h90z" />
    <glyph glyph-name="semicolon" unicode="&#x37e;" horiz-adv-x="190" 
d="M142 0l20 100h-90l-20 -100h30l-22 -105h40q11 26 21 52.5t21 52.5zM208 320h-90l-21 -100h90z" />
    <glyph glyph-name="quoteright" unicode="&#x2019;" horiz-adv-x="190" 
d="M252 530l20 100h-90l-20 -100h30l-22 -105h40q11 26 21 52.5t21 52.5z" />
    <glyph glyph-name="quoteleft" unicode="&#x2018;" horiz-adv-x="190" 
d="M162 530l-21 -100h90l21 100h-30l22 105h-40q-11 -26 -21 -52.5t-21 -52.5z" />
    <glyph glyph-name="quotesinglbase" unicode="&#x201a;" horiz-adv-x="190" 
d="M142 0l20 100h-90l-20 -100h30l-22 -105h40q11 26 21 52.5t21 52.5z" />
    <glyph glyph-name="quotedblbase" unicode="&#x201e;" horiz-adv-x="370" 
d="M142 0l20 100h-90l-20 -100h30l-22 -105h40q11 26 21 52.5t21 52.5zM297 0l20 100h-90l-20 -100h30l-22 -105h40q11 26 21 52.5t21 52.5z" />
    <glyph glyph-name="backslash" unicode="\" 
d="M255 630h-95l185 -630h95z" />
    <glyph glyph-name="parenleft" unicode="(" horiz-adv-x="275" 
d="M156 -25q-2 -10 3.5 -17.5t16.5 -7.5h65l-17 -80h-100q-42 0 -64.5 29t-14.5 71l125 600q4 21 16 39t28.5 31.5t36 21.5t40.5 8h100l-17 -80h-65q-11 0 -19.5 -7.5t-10.5 -17.5z" />
    <glyph glyph-name="period" unicode="." horiz-adv-x="190" 
d="M162 100h-90l-20 -100h90z" />
    <glyph glyph-name="asciitilde" unicode="~" horiz-adv-x="437" 
d="M337 474q-33 19 -62 20t-51 -8.5t-38.5 -23.5t-24 -24.5t-8.5 -11.5l5 -36l12.5 6t32 11t43.5 5t48 -12q38 -20 70 -18.5t55 11.5t36 21.5l13 11.5l1 43l-13 -4.5t-33 -6.5t-43 0.5t-43 15.5z" />
    <glyph glyph-name="zero" unicode="0" 
d="M455 630h-180q-21 0 -40.5 -8t-36 -21.5t-28 -31.5t-15.5 -39l-90 -430q-8 -42 15 -71t65 -29h180q21 0 40.5 8t36 21.5t28 31.5t15.5 39l90 430q8 42 -15 71t-65 29zM404 550q11 0 16.5 -7.5t3.5 -17.5l-88 -420q-2 -11 -10.5 -18t-19.5 -7h-110q-11 0 -16.5 7t-3.5 18
l88 420q2 10 10.5 17.5t19.5 7.5h110z" />
    <glyph glyph-name="fi" unicode="&#xfb01;" horiz-adv-x="553" 
d="M563 480h-110l-99 -480h110zM83 0l-19 -85q-2 -11 -11 -18t-19 -7h-55l-17 -80h90q21 0 40.5 8t36 21.5t28.5 31.5t16 39l20 90l82 400h90l16 80h-90l18 85q2 11 11 18t19 7h137l-7 -35h110l24 115h-282q-21 0 -40.5 -8t-36 -21.5t-28.5 -31.5t-16 -39l-19 -90h-60
l-16 -80h60z" />
    <glyph glyph-name="AE" unicode="&#xc6;" horiz-adv-x="705" 
d="M822 630l-16 -80h-260l-40 -190h240l-16 -80h-240l-42 -200h260l-16 -80h-370l54 260h-160l-54 -260h-110l110 530q4 21 15.5 39t28 31.5t36 21.5t40.5 8h540zM232 340h160l44 210h-135q-11 0 -19.5 -7.5t-10.5 -17.5z" />
    <glyph glyph-name="oe" unicode="&#x153;" horiz-adv-x="650" 
d="M714 380q8 42 -15 71t-65 29h-150q-17 0 -32.5 -5.5t-29.5 -14.5q-10 9 -23.5 14.5t-29.5 5.5h-125q-21 0 -40.5 -8t-36 -21.5t-28 -31.5t-15.5 -39l-59 -280q-8 -42 15 -71t65 -29h125q32 0 60 19q22 -19 55 -19h220l16 80h-178q-31 0 -26 29l18 86h140q21 0 40.5 8
t36 21.5t28.5 31.5t16 39zM343 400q10 0 16 -7t4 -17l-57 -271q-2 -11 -11 -18t-19 -7h-80q-11 0 -16.5 7t-3.5 18l56 270q2 10 11 17.5t20 7.5h80zM590 302q-2 -11 -11.5 -19t-20.5 -8h-103l20 98q2 11 12 19t21 8h76q11 0 17 -8t4 -19z" />
    <glyph glyph-name="guilsinglright" unicode="&#x203a;" horiz-adv-x="350" 
d="M128 390l-20 -93l175 -69q-51 -18 -102 -35.5t-102 -34.5l-19 -93l306 123l16 80q-63 31 -127 61t-127 61z" />
    <glyph glyph-name="dollar" unicode="$" horiz-adv-x="450" 
d="M289 80q11 0 20.5 7.5t12.5 19.5l32 153q2 11 -3.5 18t-16.5 7h-28l-43 -205h26zM262 365l40 190h-27q-11 0 -19.5 -7.5t-10.5 -17.5l-29 -140q-2 -10 3 -17.5t16 -7.5h27zM379 635h143l-17 -80h-143l-40 -190h63q42 0 65 -29t15 -71l-35 -165q-4 -21 -15.5 -39
t-28 -31.5t-36 -21.5t-40.5 -8h-63l-15 -70h-60l15 70h-147l16 80h147l43 205h-57q-42 0 -65 29t-14 71l31 150q4 21 16 39t28.5 31.5t36 21.5t40.5 8h57l13 65h60z" />
    <glyph glyph-name="asterisk" unicode="*" horiz-adv-x="314" 
d="M147 383l31 -39q16 16 31.5 31t30.5 31q-6 -20 -12.5 -39t-13.5 -39h56q2 20 3.5 39t2.5 39q10 -16 18.5 -31t17.5 -31l48 39q-13 13 -26 25t-27 24q20 -2 38.5 -4.5t37.5 -5.5l12 56q-20 -2 -40 -4.5t-40 -5.5q18 13 36.5 25t36.5 24l-32 40q-15 -16 -30 -31.5
t-32 -31.5q8 20 14 39t12 39h-56q-1 -39 -6 -78q-16 32 -36 63q-11 -10 -23 -20l-24 -20q14 -12 26 -24t26 -25q-19 3 -38 5.5t-38 4.5l-12 -56q20 3 40 5.5t40 4.5q-18 -12 -35.5 -24t-36.5 -25z" />
    <glyph glyph-name="perthousand" unicode="&#x2030;" horiz-adv-x="742" 
d="M468 500h95q-103 -126 -206 -250t-206 -250h-95q103 126 206 250t206 250zM258 498h-44q-27 0 -49.5 -19t-27.5 -45l-8 -38q-5 -26 9.5 -45t41.5 -19h44q27 0 49.5 19t27.5 45l8 38q5 26 -9.5 45t-41.5 19zM243 449q8 0 12.5 -6t2.5 -14l-6 -29q-5 -19 -23 -19h-33
q-9 0 -13.5 5.5t-2.5 13.5l6 29q2 8 8.5 14t15.5 6h33zM431 166h-44q-27 0 -49.5 -19t-27.5 -45l-8 -38q-5 -26 9.5 -45t41.5 -19h44q27 0 49.5 19t27.5 45l8 38q5 26 -9.5 45t-41.5 19zM415 117q9 0 13.5 -6t2.5 -14l-6 -29q-5 -19 -24 -19h-33q-8 0 -12.5 5.5t-2.5 13.5
l6 29q2 8 8.5 14t14.5 6h33zM656 166h-44q-27 0 -49.5 -19t-27.5 -45l-8 -38q-5 -26 9.5 -45t41.5 -19h44q27 0 49.5 19t27.5 45l8 38q5 26 -9.5 45t-41.5 19zM640 117q9 0 13.5 -6t2.5 -14l-6 -29q-5 -19 -24 -19h-33q-8 0 -12.5 5.5t-2.5 13.5l6 29q2 8 8.5 14t14.5 6h33z
" />
    <glyph glyph-name="ellipsis" unicode="&#x2026;" horiz-adv-x="590" 
d="M162 100h-90l-20 -100h90zM327 100h-90l-20 -100h90zM492 100h-90l-20 -100h90z" />
    <glyph glyph-name="guillemotleft" unicode="&#xab;" horiz-adv-x="665" 
d="M411 405l-20 -93l-102 -42t-103 -42q85 -43 170 -85l-19 -93q-63 35 -125.5 69t-125.5 69l16 80q78 35 154.5 68.5t154.5 68.5zM709 405l-20 -93l-206 -84q43 -22 85.5 -43t85.5 -42l-19 -93q-63 35 -125.5 69t-125.5 69l16 80q78 35 154.5 68.5t154.5 68.5z" />
    <glyph glyph-name="guillemotright" unicode="&#xbb;" horiz-adv-x="665" 
d="M429 405l-20 -93q44 -21 86 -42t85 -42q-52 -22 -103 -43t-103 -42l-19 -93q77 35 154 69t155 69l16 80q-63 35 -125.5 68.5t-125.5 68.5zM131 405l-20 -93l172 -84q-52 -22 -103.5 -43t-103.5 -42l-19 -93q77 35 154 69t155 69l16 80q-63 35 -125.5 68.5t-125.5 68.5z
" />
    <glyph glyph-name="notequal" unicode="&#x2260;" 
d="M50 0h95q23 32 46.5 64.5t47.5 65.5h190l16 80h-148q15 20 29.5 40t29.5 40h106l16 80h-64q24 32 48 65t47 65h-95q-23 -32 -47 -65t-48 -65h-191l-16 -80h150q-16 -20 -30.5 -40t-29.5 -40h-107l-16 -80h66q-25 -33 -48.5 -65.5t-46.5 -64.5z" />
    <glyph glyph-name="Delta" unicode="&#x394;" horiz-adv-x="659" 
d="M15 0h579q-22 159 -43.5 316.5t-42.5 316.5h-145q-88 -159 -174.5 -316.5t-173.5 -316.5zM408 504q15 -99 30 -197t29 -197h-282q57 99 112 197t111 197z" />
    <glyph glyph-name="Eth" unicode="&#xd0;" horiz-adv-x="200" 
 />
    <glyph glyph-name="eth" unicode="&#xf0;" horiz-adv-x="200" 
 />
    <glyph glyph-name="Lslash" unicode="&#x141;" horiz-adv-x="200" 
 />
    <glyph glyph-name="lslash" unicode="&#x142;" horiz-adv-x="200" 
 />
    <glyph glyph-name="nine" unicode="9" horiz-adv-x="460" 
d="M520 530q8 42 -15 71t-65 29h-180q-21 0 -40.5 -8t-36 -21.5t-28 -31.5t-15.5 -39l-35 -165q-8 -42 15 -71t65 -29h170l-34 -160q-2 -11 -11 -18t-20 -7h-229l-16 -80h265q21 0 40.5 8t36 21.5t28 31.5t15.5 39zM243 523q2 11 11.5 19t21.5 8h111q11 0 17 -8t4 -19
l-37 -178h-138q-11 0 -17 7.5t-4 18.5z" />
    <glyph glyph-name="florin" unicode="&#x192;" horiz-adv-x="322" 
d="M56 -170q21 0 41 8t36.5 21.5t28 31.5t15.5 39l98 470h100l16 80h-100l18 85q2 11 11 18t19 7h75l17 80h-110q-21 0 -40.5 -8t-36 -21.5t-28.5 -31.5t-16 -39l-19 -90h-60l-16 -80h60l-97 -465q-2 -11 -10.5 -18t-19.5 -7h-56l-17 -80h91z" />
    <glyph glyph-name="yen" unicode="&#xa5;" horiz-adv-x="530" 
d="M486 140l16 80h-130q6 12 11.5 24.5t11.5 25.5h118l16 80h-80q45 70 89 140t89 140h-110q-42 -70 -84.5 -140t-85.5 -140h-16q-13 70 -26.5 140t-27.5 140h-110q16 -70 31.5 -140t30.5 -140h-85l-16 -80h123q0 -13 0.5 -25.5t0.5 -24.5h-135l-16 -80h140l-29 -140h110
l29 140h135z" />
    <glyph glyph-name="braceright" unicode="}" horiz-adv-x="315" 
d="M105 -130q21 0 41 8t36.5 21.5t28 31.5t15.5 39l50 237q2 13 12 21.5t24 8.5h22l20 99h-22q-14 0 -20 8.5t-3 21.5l42 204q8 42 -14.5 71t-64.5 29h-100l-17 -80h65q11 0 16.5 -7.5t3.5 -17.5l-43 -208q-5 -25 2 -46t23 -34q-21 -13 -37.5 -34t-21.5 -46l-45 -217
q-2 -13 -12 -21.5t-24 -8.5h-60l-17 -80h100z" />
    <glyph glyph-name="braceleft" unicode="{" horiz-adv-x="315" 
d="M154 -130q-42 0 -64.5 29t-14.5 71l50 237q2 13 -4 21.5t-20 8.5h-22l20 99h22q14 0 24 8.5t13 21.5l42 204q4 21 16 39t28.5 31.5t36 21.5t40.5 8h100l-17 -80h-65q-11 0 -19.5 -7.5t-10.5 -17.5l-43 -208q-5 -25 -21 -46t-38 -34q17 -13 23.5 -34t1.5 -46l-45 -217
q-2 -13 4 -21.5t20 -8.5h60l-17 -80h-100z" />
    <glyph glyph-name="bracketright" unicode="]" horiz-adv-x="275" 
d="M94 -25q-2 -10 -10.5 -17.5t-19.5 -7.5h-64l-17 -80h99q21 0 41 8t36.5 21.5t28 31.5t15.5 39l125 600q8 42 -14.5 71t-64.5 29h-100l-17 -80h65q11 0 16.5 -7.5t3.5 -17.5z" />
    <glyph glyph-name="bracketleft" unicode="[" horiz-adv-x="275" 
d="M156 -25q-2 -10 3.5 -17.5t16.5 -7.5h65l-17 -80h-100q-42 0 -64.5 29t-14.5 71l125 600q4 21 16 39t28.5 31.5t36 21.5t40.5 8h100l-17 -80h-65q-11 0 -19.5 -7.5t-10.5 -17.5z" />
    <glyph glyph-name="question" unicode="?" horiz-adv-x="430" 
d="M216 175h-90l34 165h163q15 0 25.5 9t13.5 23l32 153q2 10 -3.5 17.5t-16.5 7.5h-230l16 80h260q42 0 65 -29t15 -71l-36 -170q-4 -21 -15.5 -39t-28 -31.5t-36 -21.5t-40.5 -8h-100q-7 -21 -13.5 -42t-14.5 -43zM200 100h-90l-20 -100h90z" />
    <glyph glyph-name="a" unicode="a" horiz-adv-x="430" 
d="M55 100q-8 -42 15 -71t65 -29h60q31 0 59 16.5t45 43.5l6 -60h80l100 480h-251q-21 0 -40.5 -8t-36 -21.5t-28 -31.5t-15.5 -39zM296 105q-2 -11 -10.5 -18t-19.5 -7h-80q-11 0 -16.5 7.5t-3.5 17.5l56 270q2 10 11 17.5t20 7.5h105z" />
    <glyph glyph-name="o" unicode="o" horiz-adv-x="440" 
d="M263 400q-11 0 -20 -7.5t-11 -17.5l-56 -270q-2 -11 3.5 -18t16.5 -7h80q10 0 19 7.5t12 20.5l55 267q2 10 -3.5 17.5t-15.5 7.5h-80zM124 380q4 21 15.5 39t28 31.5t36 21.5t40.5 8h150q42 0 65 -29t15 -71l-59 -280q-4 -18 -13.5 -34.5t-23 -29t-30 -21t-34.5 -11.5
q-17 -4 -45 -4h-124q-42 0 -65 29t-15 71z" />
    <glyph glyph-name="n" unicode="n" horiz-adv-x="445" 
d="M239 375q2 11 11 18t20 7h80q11 0 16 -7t3 -18l-77 -375h110l79 380q8 42 -15 71t-65 29h-60q-31 0 -59 -16.5t-45 -43.5l-6 60h-80l-99 -480h110z" />
    <glyph glyph-name="paragraph" unicode="&#xb6;" horiz-adv-x="460" 
d="M416 610h-120q-21 0 -40.5 -8t-36 -21.5t-28 -31.5t-15.5 -39l-32 -150q-8 -42 15 -71t65 -29h60l-54 -260h60zM516 610h-60l-126 -610h60z" />
    <glyph glyph-name="u" unicode="u" horiz-adv-x="445" 
d="M308 105q-2 -11 -10.5 -18t-19.5 -7h-80q-11 0 -16.5 7t-3.5 18l78 375h-110l-79 -380q-8 -42 15 -71t65 -29h60q31 0 59 16.5t45 43.5l6 -60h80l99 480h-110z" />
    <glyph glyph-name="i" unicode="i" horiz-adv-x="230" 
d="M261 480h-110l-99 -480h110zM301 670h-110l-22 -105h110z" />
    <glyph glyph-name="j" unicode="j" horiz-adv-x="235" 
d="M259 480h-110l-113 -545q-2 -11 -10.5 -18t-19.5 -7h-69l-17 -80h104q21 0 41 8t36.5 21.5t28 31.5t15.5 39zM299 670h-110l-22 -106h110z" />
    <glyph glyph-name="l" unicode="l" horiz-adv-x="230" 
d="M301 670h-110l-139 -670h110z" />
    <glyph glyph-name="h" unicode="h" horiz-adv-x="445" 
d="M245 400h105q11 0 16 -7t3 -18l-77 -375h110l79 380q8 42 -15 71t-65 29h-140l40 190h-110l-139 -670h110z" />
    <glyph glyph-name="e" unicode="e" horiz-adv-x="430" 
d="M65 100q-8 -42 15 -71t65 -29h220l16 80h-183q-27 0 -21 27l16 78h140q21 0 40.5 8t36 21.5t28.5 31.5t16 39l20 95q8 42 -15 71t-65 29h-150q-21 0 -40.5 -8t-36 -21.5t-28 -31.5t-15.5 -39zM345 292q-2 -11 -11.5 -19t-20.5 -8h-103l22 108q2 11 12 19t21 8h76
q11 0 17 -8t4 -19z" />
    <glyph glyph-name="c" unicode="c" horiz-adv-x="390" 
d="M232 375q2 10 11 17.5t20 7.5h187l16 80h-222q-21 0 -40.5 -8t-36 -21.5t-28 -31.5t-15.5 -39l-59 -280q-8 -42 15 -71t65 -29h222l16 80h-186q-11 0 -17 7.5t-3 18.5z" />
    <glyph glyph-name="d" unicode="d" horiz-adv-x="445" 
d="M65 100q-8 -42 15 -71t65 -29h60q31 0 59 16.5t45 43.5l6 -60h80l139 670h-110l-40 -190h-140q-21 0 -40.5 -8t-36 -21.5t-28 -31.5t-15.5 -39zM306 105q-2 -11 -10.5 -18t-19.5 -7h-80q-11 0 -16.5 7.5t-3.5 17.5l56 270q2 10 11 17.5t20 7.5h105z" />
    <glyph glyph-name="b" unicode="b" horiz-adv-x="445" 
d="M422 100q-4 -21 -15.5 -39t-28 -31.5t-36 -21.5t-40.5 -8h-60q-31 0 -53 16.5t-27 43.5l-30 -60h-80l139 670h110l-40 -190h140q42 0 65 -29t15 -71zM183 105q-2 -11 3.5 -18t16.5 -7h80q11 0 19.5 7.5t10.5 17.5l56 270q2 10 -3 17.5t-16 7.5h-105z" />
    <glyph glyph-name="s" unicode="s" horiz-adv-x="410" 
d="M282 107q-3 -13 -12 -20t-21 -7h-193l-16 -80h230q21 0 40.5 8t36 21.5t28 31.5t15.5 39l18 85q8 42 -14.5 71t-64.5 29h-108q-27 0 -22 26l13 64q2 10 11 17.5t20 7.5h190l16 80h-220q-21 0 -40.5 -8t-36 -21.5t-28 -31.5t-15.5 -39q-6 -26 -9 -42t-4.5 -26t-2.5 -14.5
t-1 -8.5q-2 -36 20 -60t60 -24h105q11 0 16.5 -7t3.5 -18z" />
    <glyph glyph-name="f" unicode="f" horiz-adv-x="322" 
d="M82 0l-18 -85q-2 -11 -11 -18t-19 -7h-55l-17 -80h90q21 0 40.5 8t36 21.5t28.5 31.5t16 39l19 90l83 400h100l16 80h-100l18 85q2 11 11 18t19 7h75l17 80h-110q-21 0 -40.5 -8t-36 -21.5t-28.5 -31.5t-16 -39l-19 -90h-60l-16 -80h60z" />
    <glyph glyph-name="t" unicode="t" horiz-adv-x="335" 
d="M391 480l-16 -80h-105l-62 -295q-2 -11 3.5 -18t16.5 -7h80l-16 -80h-96q-22 0 -38 4q-33 5 -51 32.5t-10 63.5l63 300h-55l16 80h55l29 140h110l-29 -140h105z" />
    <glyph glyph-name="k" unicode="k" horiz-adv-x="465" 
d="M406 480q42 0 65 -29t15 -71l-20 -95q-7 -30 -31.5 -55t-62.5 -25h-13q17 -52 34 -103l34 -102h-112q-16 51 -31.5 102t-31.5 103h-48l-42 -205h-110l139 670h110l-40 -190h145zM331 285q11 0 19.5 7t10.5 18l13 65q2 11 -3 18t-16 7h-110l-24 -115h110z" />
    <glyph glyph-name="y" unicode="y" horiz-adv-x="445" 
d="M278 80h-80q-11 0 -16.5 7t-3.5 18l78 375h-110l-79 -380q-8 -42 15 -71t65 -29h77q20 0 38 9t32 25l-21 -99q-2 -11 -10.5 -18t-19.5 -7h-170l-17 -80h205q21 0 41 8t36.5 21.5t28 31.5t15.5 39l114 550h-110l-78 -377q-3 -10 -11 -16.5t-19 -6.5z" />
    <glyph glyph-name="g" unicode="g" horiz-adv-x="445" 
d="M301 80h-105q-11 0 -16.5 7t-3.5 18l56 270q2 10 11 17.5t20 7.5h80q11 0 16 -7.5t3 -17.5zM259 -170q21 0 41 8t36.5 21.5t28 31.5t15.5 39l114 550h-80l-30 -60q-6 27 -27.5 43.5t-52.5 16.5h-60q-21 0 -40.5 -8t-36 -21.5t-28 -31.5t-15.5 -39l-59 -280q-8 -42 15 -71
t65 -29h140l-14 -65q-2 -11 -10.5 -18t-19.5 -7h-170l-17 -80h205z" />
    <glyph glyph-name="p" unicode="p" horiz-adv-x="445" 
d="M481 380q8 42 -15 71t-65 29h-60q-31 0 -59 -16.5t-45 -43.5l-6 60h-80l-139 -670h110l40 190h140q21 0 40.5 8t36 21.5t28 31.5t15.5 39zM239 375q2 10 11 17.5t20 7.5h80q11 0 16 -7.5t3 -17.5l-56 -270q-2 -11 -10.5 -18t-19.5 -7h-105z" />
    <glyph glyph-name="q" unicode="q" horiz-adv-x="445" 
d="M124 380q4 21 15.5 39t28 31.5t36 21.5t40.5 8h60q31 0 52.5 -16.5t27.5 -43.5l30 60h80l-139 -670h-110l40 190h-140q-42 0 -65 29t-15 71zM362 375q2 10 -3 17.5t-16 7.5h-80q-11 0 -20 -7.5t-11 -17.5l-56 -270q-2 -11 3.5 -18t16.5 -7h105z" />
    <glyph glyph-name="v" unicode="v" 
d="M111 480h109l18 -375l174 375h109q-58 -121 -116 -241t-116 -241h-145q-9 121 -16.5 241t-16.5 241z" />
    <glyph glyph-name="w" unicode="w" horiz-adv-x="756" 
d="M111 480h109q2 -94 4 -187.5t4 -187.5q43 94 85 187.5t84 187.5h110q3 -94 6 -187.5t7 -187.5q42 94 82 187.5t82 187.5h109q-56 -121 -111.5 -241t-111.5 -241h-140q-4 78 -7 155t-6 155q-36 -78 -72 -155t-71 -155h-140q-6 121 -11.5 241t-11.5 241z" />
    <glyph glyph-name="x" unicode="x" horiz-adv-x="500" 
d="M426 480h115q-46 -58 -91.5 -115.5t-91.5 -114.5q21 -63 42 -125t42 -125h-115q-14 45 -29 90t-29 90l-132 -180h-115q47 63 92.5 125t92.5 125q-22 57 -43 114.5t-43 115.5h115q16 -42 31 -82.5t30 -82.5q32 42 64.5 82.5t64.5 82.5z" />
    <glyph glyph-name="z" unicode="z" horiz-adv-x="425" 
d="M476 480h-350l-16 -80h233q-76 -79 -152 -156.5t-151 -156.5l-18 -87h360l16 80h-243l303 312z" />
    <glyph glyph-name="C" unicode="C" horiz-adv-x="435" 
d="M176 105q-2 -10 3.5 -17.5t16.5 -7.5h225l-16 -80h-260q-42 0 -65 29t-15 71l90 430q4 21 15.5 39t28 31.5t36 21.5t40.5 8h260l-16 -80h-225q-11 0 -19.5 -7.5t-10.5 -17.5z" />
    <glyph glyph-name="O" unicode="O" 
d="M455 630h-180q-21 0 -40.5 -8t-36 -21.5t-28 -31.5t-15.5 -39l-90 -430q-8 -42 15 -71t65 -29h180q21 0 40.5 8t36 21.5t28 31.5t15.5 39l90 430q8 42 -15 71t-65 29zM404 550q11 0 16.5 -7.5t3.5 -17.5l-88 -420q-2 -11 -10.5 -18t-19.5 -7h-110q-11 0 -16.5 7t-3.5 18
l88 420q2 10 10.5 17.5t19.5 7.5h110z" />
    <glyph glyph-name="Q" unicode="Q" 
d="M404 550q11 0 16.5 -7.5t3.5 -17.5l-88 -420q-2 -11 -10.5 -18t-19.5 -7h-110q-11 0 -16.5 7t-3.5 18l88 420q2 10 10.5 17.5t19.5 7.5h110zM455 630h-180q-21 0 -40.5 -8t-36 -21.5t-28 -31.5t-15.5 -39l-90 -430q-8 -42 15 -71t65 -29h60l-10 -48q-4 -16 -16 -26
t-28 -10h-49l-14 -66h60q21 0 41 8t36.5 21.5t28 31.5t15.5 39l11 50h45q21 0 40.5 8t36 21.5t28 31.5t15.5 39l90 430q8 42 -15 71t-65 29z" />
    <glyph glyph-name="D" unicode="D" horiz-adv-x="475" 
d="M182 630h280q42 0 65 -29t15 -71l-90 -430q-4 -21 -15.5 -39t-28 -31.5t-36 -21.5t-40.5 -8h-280zM431 525q2 10 -3.5 17.5t-16.5 7.5h-135l-98 -470h134q26 0 32 26z" />
    <glyph glyph-name="U" unicode="U" 
d="M196 80q-11 0 -16.5 7t-3.5 18l109 525h-110l-110 -530q-8 -42 15 -71t65 -29h180q21 0 40.5 8t36 21.5t28 31.5t15.5 39l110 530h-110l-108 -523q-3 -13 -12 -20t-20 -7h-109z" />
    <glyph glyph-name="E" unicode="E" horiz-adv-x="455" 
d="M552 630l-16 -80h-260l-40 -190h240l-16 -80h-240l-42 -200h260l-16 -80h-370l130 630h370z" />
    <glyph glyph-name="F" unicode="F" horiz-adv-x="455" 
d="M552 630l-16 -80h-260l-40 -190h240l-16 -80h-240l-58 -280h-110l130 630h370z" />
    <glyph glyph-name="registered" unicode="&#xae;" horiz-adv-x="670" 
d="M636 610h-350q-21 0 -40.5 -8t-36 -21.5t-28 -31.5t-15.5 -39l-86 -410q-8 -42 15 -71t65 -29h350q21 0 40.5 8t36 21.5t28 31.5t15.5 39l86 410q8 42 -15 71t-65 29zM624 550q17 0 26 -11.5t6 -28.5l-86 -410q-3 -17 -17 -28.5t-31 -11.5h-350q-17 0 -26 11.5t-6 28.5
l86 410q3 17 17 28.5t31 11.5h350zM286 510h210q42 0 64.5 -29t14.5 -71l-6 -30q-4 -21 -16 -39t-28.5 -31.5t-36 -21.5t-40.5 -8h-36l108 -180h-75q-26 45 -53.5 90t-53.5 90h-40l-38 -180h-60zM515 410q3 17 -6 28.5t-26 11.5h-150l-23 -110h140q23 0 39.5 13.5t21.5 36.5
z" />
    <glyph glyph-name="copyright" unicode="&#xa9;" horiz-adv-x="670" 
d="M636 610h-350q-21 0 -40.5 -8t-36 -21.5t-28 -31.5t-15.5 -39l-86 -410q-8 -42 15 -71t65 -29h350q21 0 40.5 8t36 21.5t28 31.5t15.5 39l86 410q8 42 -15 71t-65 29zM624 550q17 0 26 -11.5t6 -28.5l-86 -410q-3 -17 -17 -28.5t-31 -11.5h-350q-17 0 -26 11.5t-6 28.5
l86 410q3 17 17 28.5t31 11.5h350zM325 410q3 17 17 28.5t31 11.5h200l13 60h-200q-21 0 -40.5 -8t-36 -21.5t-28.5 -31.5t-16 -39l-44 -210q-8 -42 14.5 -71t64.5 -29h200l13 60h-190q-23 0 -34 13.5t-6 36.5z" />
    <glyph glyph-name="germandbls" unicode="&#xdf;" 
d="M236 360h127q14 0 24.5 8.5t13.5 22.5l28 134q2 10 -3.5 17.5t-16.5 7.5h-108q-11 0 -19.5 -7.5t-10.5 -17.5zM162 530q4 21 15.5 39t28 31.5t36 21.5t40.5 8h175q42 0 65 -29t15 -71l-30 -145q-5 -23 -20 -40.5t-35 -29.5q17 -11 26 -29t4 -41l-30 -145
q-4 -21 -15.5 -39t-28 -31.5t-36 -21.5t-40.5 -8h-102l16 80h61q31 0 38 31l28 139q2 10 -3 17.5t-16 7.5h-135l-93 -445h-110z" />
    <glyph glyph-name="bullet" unicode="&#x2022;" horiz-adv-x="240" 
d="M200 290q17 0 26 -11.5t5 -28.5l-8 -40q-3 -17 -17 -28.5t-31 -11.5h-40q-17 0 -26 11.5t-6 28.5l8 40q4 17 18 28.5t31 11.5h40z" />
    <glyph glyph-name="sterling" unicode="&#xa3;" horiz-adv-x="455" 
d="M321 550q-11 0 -19.5 -7t-10.5 -18l-35 -165h130l-16 -80h-130l-42 -200h230l-16 -80h-400l16 80h60l94 450q4 21 15.5 39t28 31.5t36 21.5t40.5 8h240l-16 -80h-205z" />
    <glyph glyph-name="approxequal" unicode="&#x2248;" horiz-adv-x="474" 
d="M339 366q-37 19 -71.5 20t-62.5 -8.5t-49.5 -23.5t-32.5 -24.5t-12 -11.5l5 -36l17.5 6t44 11t56.5 5q31 0 58 -12q42 -20 81.5 -18.5t70 11.5t48.5 21.5l18 11.5l1 43l-18.5 -4.5t-45.5 -6.5t-56.5 0.5t-51.5 15.5zM307 216q-37 19 -71.5 20t-62.5 -8.5t-49.5 -23.5
t-32.5 -24.5t-12 -11.5l6 -36l17.5 6t44 11t56.5 5q31 0 58 -12q42 -20 81.5 -18.5t69.5 11.5t48 21.5l18 11.5l1 43l-18.5 -4.5t-45.5 -6.5t-56.5 0.5t-51.5 15.5z" />
    <glyph glyph-name="circumflex" unicode="&#x2c6;" horiz-adv-x="425" 
d="M492 540q-18 -5 -35 -10l-34 -10q-22 18 -43.5 36.5t-43.5 37.5q-29 -19 -59 -37.5t-59 -36.5q-16 5 -31 10l-30 10q39 35 78 69.5t79 69.5h80q24 -35 48.5 -69.5t49.5 -69.5z" />
    <glyph glyph-name="ring" unicode="&#x2da;" horiz-adv-x="284" 
d="M315 679q24 0 37.5 -15.5t8.5 -38.5l-11 -56q-5 -23 -25.5 -39t-44.5 -16h-64q-23 0 -37 16t-9 39l11 56q5 23 26 38.5t44 15.5h64zM295 633h-44q-8 0 -14 -4.5t-8 -11.5l-8 -39q-2 -7 2.5 -11.5t12.5 -4.5h44q7 0 13.5 4.5t8.5 11.5l8 39q2 7 -3 11.5t-12 4.5z" />
    <glyph glyph-name="slash" unicode="/" 
d="M475 630h95l-445 -630h-95z" />
    <glyph glyph-name="plusminus" unicode="&#xb1;" horiz-adv-x="490" 
d="M237 155h80l28 135h135l16 80h-135l28 135h-80l-28 -135h-135l-16 -80h135zM428 40l16 80h-350l-16 -80h350z" />
    <glyph glyph-name="caron" unicode="&#x2c7;" horiz-adv-x="425" 
d="M517 660q-16 5 -31 10l-30 10q-29 -19 -59 -37.5t-59 -36.5q-22 18 -43.5 36.5t-43.5 37.5q-18 -5 -35 -10l-34 -10q25 -35 49 -69.5t50 -69.5h80q38 35 77.5 69.5t78.5 69.5z" />
    <glyph glyph-name="zcaron" unicode="&#x17e;" horiz-adv-x="385" 
d="M472 480h-350l-16 -80h233q-76 -79 -152 -156.5t-151 -156.5l-18 -87h360l16 80h-243l303 312zM515 660q-16 5 -31 10l-30 10q-29 -19 -59 -37.5t-59 -36.5q-22 18 -43.5 36.5t-43.5 37.5q-18 -5 -35 -10l-34 -10q25 -35 49 -69.5t50 -69.5h80q38 35 77.5 69.5t78.5 69.5
z" />
    <glyph glyph-name="Zcaron" unicode="&#x17d;" horiz-adv-x="440" 
d="M545 630h-383l-16 -80h266q-94 -117 -186 -231.5t-186 -231.5l-18 -87h398l16 80h-281l372 462zM537 810q-16 5 -31 10l-30 10q-29 -19 -59 -37.5t-59 -36.5q-22 18 -43.5 36.5t-43.5 37.5q-18 -5 -35 -10l-34 -10q25 -35 49 -69.5t50 -69.5h80q38 35 77.5 69.5
t78.5 69.5z" />
    <glyph glyph-name="Scaron" unicode="&#x160;" horiz-adv-x="430" 
d="M322 107q-3 -13 -12 -20t-21 -7h-233l-16 -80h270q21 0 40.5 8t36 21.5t28 31.5t15.5 39l34 160q8 42 -15 71t-65 29h-148q-12 0 -18 7t-3 19l29 139q2 10 10.5 17.5t19.5 7.5h230l16 80h-260q-21 0 -40.5 -8t-36 -21.5t-28 -31.5t-15.5 -39l-27 -129l-4 -21
q-9 -42 14 -71t65 -29h145q11 0 16.5 -7t3.5 -18zM517 810q-16 5 -31 10l-30 10q-29 -19 -59 -37.5t-59 -36.5q-22 18 -43.5 36.5t-43.5 37.5q-18 -5 -35 -10l-34 -10q25 -35 49 -69.5t50 -69.5h80q38 35 77.5 69.5t78.5 69.5z" />
    <glyph glyph-name="scaron" unicode="&#x161;" horiz-adv-x="390" 
d="M302 107q-3 -13 -12 -20t-21 -7h-193l-16 -80h230q21 0 40.5 8t36 21.5t28 31.5t15.5 39l18 85q8 42 -14.5 71t-64.5 29h-108q-27 0 -22 26l13 64q2 10 11 17.5t20 7.5h190l16 80h-220q-21 0 -40.5 -8t-36 -21.5t-28 -31.5t-15.5 -39q-6 -26 -9 -42t-4.5 -26t-2.5 -14.5
t-1 -8.5q-2 -36 20 -60t60 -24h105q11 0 16.5 -7t3.5 -18zM514 660q-16 5 -31 10l-30 10q-29 -19 -59 -37.5t-59 -36.5q-22 18 -43.5 36.5t-43.5 37.5q-18 -5 -35 -10l-34 -10q25 -35 49 -69.5t50 -69.5h80q38 35 77.5 69.5t78.5 69.5z" />
    <glyph glyph-name="percent" unicode="%" horiz-adv-x="502" 
d="M468 500h95q-103 -126 -206 -250t-206 -250h-95q103 126 206 250t206 250zM258 498h-44q-27 0 -49.5 -19t-27.5 -45l-8 -38q-5 -26 9.5 -45t41.5 -19h44q27 0 49.5 19t27.5 45l8 38q5 26 -9.5 45t-41.5 19zM243 449q8 0 12.5 -6t2.5 -14l-6 -29q-5 -19 -23 -19h-33
q-9 0 -13.5 5.5t-2.5 13.5l6 29q2 8 8.5 14t15.5 6h33zM431 166h-44q-27 0 -49.5 -19t-27.5 -45l-8 -38q-5 -26 9.5 -45t41.5 -19h44q27 0 49.5 19t27.5 45l8 38q5 26 -9.5 45t-41.5 19zM415 117q9 0 13.5 -6t2.5 -14l-6 -29q-5 -19 -24 -19h-33q-8 0 -12.5 5.5t-2.5 13.5
l6 29q2 8 8.5 14t14.5 6h33z" />
    <glyph glyph-name="bar" unicode="|" horiz-adv-x="200" 
d="M300 700h-85l-181 -870h85z" />
    <glyph glyph-name="numbersign" unicode="#" 
d="M142 50h80l17 80h80l-17 -80h80l17 80h80l16 80h-80l17 80h80l16 80h-80l17 80h-80l-17 -80h-80l17 80h-80l-17 -80h-80l-16 -80h80l-17 -80h-80l-16 -80h80zM272 290h80l-17 -80h-80z" />
    <glyph glyph-name="one" unicode="1" horiz-adv-x="265" 
d="M325 630h-195l-16 -80h85l-114 -550h110z" />
    <glyph glyph-name="three" unicode="3" horiz-adv-x="450" 
d="M46 80l-16 -80h275q21 0 40.5 8t36 21.5t28 31.5t15.5 39l31 150q5 23 -4 41t-26 29q20 12 35 29.5t20 40.5l29 140q8 42 -15 71t-65 29h-270l-16 -80h237q11 0 16.5 -7.5t3.5 -17.5l-28 -134q-2 -11 -11.5 -18.5t-20.5 -7.5h-196l-17 -85h200q11 0 16.5 -7.5t3.5 -17.5
l-31 -149q-3 -11 -12 -18.5t-20 -7.5h-239z" />
    <glyph glyph-name="two" unicode="2" horiz-adv-x="450" 
d="M204 360q-21 0 -40.5 -8t-36 -21.5t-28 -31.5t-15.5 -39l-54 -260h370l16 80h-260l37 175q2 11 10.5 18t19.5 7h145q21 0 40.5 8t36 21.5t28.5 31.5t16 39l31 150q8 42 -15 71t-65 29h-260l-16 -80h229q11 0 17 -7.5t4 -17.5l-29 -139q-2 -11 -12 -18.5t-21 -7.5h-148z
" />
    <glyph glyph-name="five" unicode="5" horiz-adv-x="450" 
d="M353 258q2 11 -4 19t-17 8h-233l71 345h355l-16 -80h-245l-39 -185h155q42 0 65 -29t15 -71l-35 -165q-4 -21 -15.5 -39t-28 -31.5t-36 -21.5t-40.5 -8h-275l16 80h244q11 0 20 7t11 18z" />
    <glyph glyph-name="seven" unicode="7" horiz-adv-x="425" 
d="M522 630h-377l-16 -80h266q-90 -138 -179 -275t-179 -275h115q88 137 176 271t176 271z" />
    <glyph glyph-name="eight" unicode="8" 
d="M441 320q17 -11 26 -29t4 -41l-31 -150q-4 -21 -15.5 -39t-28 -31.5t-36 -21.5t-40.5 -8h-180q-42 0 -65 29t-15 71l31 150q5 23 21.5 41t38.5 29q-16 12 -23 29.5t-2 40.5l29 140q4 21 15.5 39t28 31.5t36 21.5t40.5 8h170q42 0 65 -29t15 -71l-29 -140
q-5 -23 -20 -40.5t-35 -29.5zM233 391q-2 -11 3.5 -18.5t16.5 -7.5h103q11 0 20.5 7.5t11.5 18.5l28 134q2 10 -3.5 17.5t-16.5 7.5h-105q-11 0 -19.5 -7.5t-10.5 -17.5zM172 106q-3 -11 3 -18.5t17 -7.5h108q11 0 20 7.5t12 18.5l31 149q2 10 -3.5 17.5t-16.5 7.5h-110
q-11 0 -19.5 -7.5t-10.5 -17.5z" />
    <glyph glyph-name="six" unicode="6" horiz-adv-x="460" 
d="M65 100q-8 -42 15 -71t65 -29h180q21 0 40.5 8t36 21.5t28 31.5t15.5 39l35 165q8 42 -15 71t-65 29h-170l34 160q2 10 10.5 17.5t19.5 7.5h230l16 80h-265q-21 0 -40.5 -8t-36 -21.5t-28 -31.5t-15.5 -39zM342 106q-3 -11 -12.5 -18.5t-20.5 -7.5h-111q-12 0 -18 7.5
t-3 18.5l37 179h138q11 0 17 -8t4 -19z" />
    <glyph glyph-name="four" unicode="4" horiz-adv-x="465" 
d="M160 630h110l-56 -270q-2 -11 4 -18t16 -7h135l61 295h110l-130 -630h-110l53 255h-170q-42 0 -65 29t-15 71z" />
    <glyph glyph-name="exclam" unicode="!" horiz-adv-x="230" 
d="M292 630h-110q-20 -115 -41.5 -228t-42.5 -227h90q26 114 52 227t52 228zM172 100h-90l-20 -100h90z" />
    <glyph glyph-name="multiply" unicode="&#xd7;" horiz-adv-x="438" 
d="M87 133l33 -42l142 117l92 -117l51 42l-93 117l142 117l-33 42l-142 -117l-92 117l-51 -42l92 -117z" />
    <glyph glyph-name="ordfeminine" unicode="&#xaa;" horiz-adv-x="330" 
d="M425 570h-160q-21 0 -40.5 -8t-36 -21.5t-28 -31.5t-16.5 -39l-14 -70q-9 -42 14 -71t65 -29h19q23 0 44.5 12.5t33.5 32.5q2 -11 2.5 -22.5t2.5 -22.5h58zM233 378q-13 0 -19.5 9t-4.5 21l11 53q3 13 13.5 21.5t23.5 8.5h75l-18 -83q-2 -12 -13 -21t-23 -9h-45z" />
    <glyph glyph-name="ordmasculine" unicode="&#xba;" horiz-adv-x="330" 
d="M325 570h-60q-21 0 -40.5 -8t-36 -21.5t-28 -31.5t-16.5 -39l-14 -70q-9 -42 14 -71t65 -29h60q21 0 40.5 8t36 21.5t28.5 31.5t16 39l14 70q9 42 -14 71t-65 29zM302 491q12 0 19 -8.5t4 -21.5l-11 -53q-2 -12 -13 -21t-23 -9h-45q-13 0 -19.5 9t-4.5 21l11 53
q3 13 13.5 21.5t23.5 8.5h45z" />
    <glyph glyph-name="ampersand" unicode="&#x26;" horiz-adv-x="530" 
d="M181 175q2 11 10.5 18t19.5 7h130l-20 -95q-2 -11 -11 -18t-19 -7h-104q-11 0 -17 7.5t-3 18.5zM520 0l16 80h-84q-11 0 -17.5 7.5t-2.5 19.5l19 93h110l17 80h-110l14 70h-110l-14 -70h-126q-11 0 -17.5 7.5t-4.5 18.5l14 69q2 10 11.5 17.5t20.5 7.5h237l16 80h-273
q-21 0 -40.5 -8t-36 -21.5t-28 -31.5t-15.5 -39l-15 -70q-5 -23 2.5 -40.5t22.5 -29.5q-22 -11 -38 -29t-21 -41l-15 -70q-8 -42 15 -71t65 -29h148q45 0 77 40q14 -40 61 -40h102z" />
    <glyph glyph-name="uni00A0" unicode="&#xa0;" horiz-adv-x="300" 
 />
    <glyph glyph-name="r" unicode="r" horiz-adv-x="370" 
d="M236 360q4 17 18 28.5t31 11.5h120l16 80h-80q-31 0 -59 -16.5t-45 -43.5l-6 60h-80l-99 -480h110z" />
    <glyph glyph-name="exclamdown" unicode="&#xa1;" horiz-adv-x="230" 
d="M130 -150h-110q27 114 53 227t52 228h90q-21 -115 -42 -228t-43 -227zM231 380h-90l20 100h90z" />
    <glyph glyph-name="quotedblright" unicode="&#x201d;" horiz-adv-x="370" 
d="M252 530l20 100h-90l-20 -100h30l-22 -105h40q11 26 21 52.5t21 52.5zM407 530l20 100h-90l-20 -100h30l-22 -105h40q11 26 21 52.5t21 52.5z" />
    <glyph glyph-name="quotedblleft" unicode="&#x201c;" horiz-adv-x="370" 
d="M316 525l-21 -100h90l21 100h-30l21 105h-40q-11 -26 -20.5 -52.5t-20.5 -52.5zM161 525l-21 -100h90l21 100h-30l21 105h-40q-11 -26 -20.5 -52.5t-20.5 -52.5z" />
    <glyph glyph-name="parenright" unicode=")" horiz-adv-x="275" 
d="M94 -25q-2 -10 -10.5 -17.5t-19.5 -7.5h-64l-17 -80h99q21 0 41 8t36.5 21.5t28 31.5t15.5 39l125 600q8 42 -14.5 71t-64.5 29h-100l-17 -80h65q11 0 16.5 -7.5t3.5 -17.5z" />
    <glyph glyph-name="minus" unicode="&#x2212;" horiz-adv-x="420" 
d="M445 210l17 80h-350l-17 -80h350z" />
    <glyph glyph-name="asciicircum" unicode="^" horiz-adv-x="425" 
d="M492 540q-18 -5 -35 -10l-34 -10q-22 18 -43.5 36.5t-43.5 37.5q-29 -19 -59 -37.5t-59 -36.5q-16 5 -31 10l-30 10q39 35 78 69.5t79 69.5h80q24 -35 48.5 -69.5t49.5 -69.5z" />
    <glyph glyph-name="less" unicode="&#x3c;" horiz-adv-x="350" 
d="M408 390l-20 -93q-51 -17 -101 -34.5t-101 -34.5q44 -18 86.5 -35.5t86.5 -34.5l-19 -93q-63 31 -127 61.5t-127 61.5l16 80q77 31 153 61t153 61z" />
    <glyph glyph-name="ae" unicode="&#xe6;" horiz-adv-x="640" 
d="M572 302q-2 -11 -11.5 -19t-20.5 -8h-103l20 98q2 11 12 19t21 8h76q11 0 17 -8t4 -19zM234 480q-21 0 -40.5 -8t-36 -21.5t-28 -31.5t-15.5 -39l-59 -280q-8 -42 15 -71t65 -29h60q31 0 59 16.5t45 43.5q3 -34 30.5 -48t60.5 -12h200l16 80h-178q-31 0 -25 32l17 83h140
q21 0 40.5 8t36 21.5t28.5 31.5t16 39l18 85q8 42 -15 71t-65 29h-385zM296 105q-2 -11 -10.5 -18t-19.5 -7h-80q-11 0 -16.5 7.5t-3.5 17.5l56 270q2 10 11 17.5t20 7.5h105z" />
    <glyph glyph-name="fl" unicode="&#xfb02;" horiz-adv-x="553" 
d="M82 0l-18 -85q-2 -11 -11 -18t-19 -7h-55l-17 -80h90q21 0 40.5 8t36 21.5t28.5 31.5t16 39l19 90l83 400h90l16 80h-90l18 85q2 11 11 18t19 7h137l-122 -590h110l139 670h-282q-21 0 -40.5 -8t-36 -21.5t-28.5 -31.5t-16 -39l-19 -90h-60l-16 -80h60z" />
    <glyph glyph-name="OE" unicode="&#x152;" horiz-adv-x="700" 
d="M404 550q11 0 16.5 -7.5t3.5 -17.5l-87 -416q-3 -14 -11.5 -21.5t-19.5 -7.5h-110q-11 0 -16.5 7t-3.5 18l88 420q2 10 10.5 17.5t19.5 7.5h110zM275 630q-21 0 -40.5 -8t-36 -21.5t-28 -31.5t-15.5 -39l-90 -430q-8 -42 15 -71t65 -29h540l16 80h-260l42 200h240l16 80
h-240l40 190h260l16 80h-540z" />
    <glyph glyph-name="Oslash" unicode="&#xd8;" 
d="M325 0q21 0 40.5 8t36 21.5t28 31.5t15.5 39l90 430q8 42 -15 71t-65 29h-180q-21 0 -40.5 -8t-36 -21.5t-28 -31.5t-15.5 -39l-90 -430q-8 -42 15 -71t65 -29h180zM404 550q11 0 16.5 -7.5t3.5 -17.5l-7 -33q-53 -57 -104 -112t-103 -112l54 257q2 10 10.5 17.5
t19.5 7.5h110zM306 80h-110q-11 0 -16.5 7t-3.5 18l6 29l207 225l-53 -254q-2 -11 -10.5 -18t-19.5 -7z" />
    <glyph glyph-name="oslash" unicode="&#xf8;" horiz-adv-x="440" 
d="M394 480h-150q-21 0 -40.5 -8t-36 -21.5t-28 -31.5t-15.5 -39l-59 -280q-8 -42 15 -71t65 -29h150q21 0 40.5 8t36 21.5t28 31.5t15.5 39l59 280q8 42 -15 71t-65 29zM343 400q10 0 15.5 -7.5t3.5 -17.5l-5 -28q-40 -32 -79 -63.5t-78 -63.5l32 155q2 10 11 17.5t20 7.5
h80zM276 80h-80q-11 0 -16.5 7t-3.5 18l6 27q39 32 77.5 63t78.5 63l-32 -153q-2 -11 -11 -18t-19 -7z" />
    <glyph glyph-name="guilsinglleft" unicode="&#x2039;" horiz-adv-x="350" 
d="M408 390l-20 -93q-51 -17 -101 -34.5t-101 -34.5q44 -18 86.5 -35.5t86.5 -34.5l-19 -93q-63 31 -127 61.5t-127 61.5l16 80q77 31 153 61t153 61z" />
    <glyph glyph-name="fraction" unicode="&#x2215;" 
d="M475 630h95l-445 -630h-95z" />
    <glyph glyph-name="greaterequal" unicode="&#x2265;" horiz-adv-x="420" 
d="M188 490l-19 -93l175 -69q-51 -18 -102 -35.5t-102 -34.5l-19 -93q76 31 152.5 61.5t152.5 61.5l17 80q-63 31 -127 61t-128 61zM55 40l16 80h350l-16 -80h-350z" />
    <glyph glyph-name="nonmarkingreturn" unicode="&#xe000;" horiz-adv-x="200" 
 />
    </font>
</defs>
</svg>
